G04 Layer_Color=16711935*
%FSAX44Y44*%
%MOMM*%
G71*
G01*
G75*
%ADD28R,2.5000X0.8000*%
%ADD29R,1.1652X1.6224*%
%ADD30R,1.6224X1.1652*%
%ADD31C,4.0000*%
%ADD32R,1.7000X1.7000*%
%ADD33C,1.7000*%
%ADD34R,1.7000X1.7000*%
%ADD35C,1.4000*%
%ADD36R,0.8000X2.5000*%
D28*
X00345000Y00137702D02*
D03*
Y00150402D02*
D03*
Y00163102D02*
D03*
Y00175802D02*
D03*
X00390000Y00137702D02*
D03*
Y00150402D02*
D03*
Y00163102D02*
D03*
Y00175802D02*
D03*
X00218750Y00262002D02*
D03*
Y00274702D02*
D03*
Y00287402D02*
D03*
Y00300102D02*
D03*
X00263750Y00262002D02*
D03*
Y00274702D02*
D03*
Y00287402D02*
D03*
Y00300102D02*
D03*
X00732500Y00175802D02*
D03*
Y00163102D02*
D03*
Y00150402D02*
D03*
Y00137702D02*
D03*
X00687500Y00175802D02*
D03*
Y00163102D02*
D03*
Y00150402D02*
D03*
Y00137702D02*
D03*
X00606852Y00297092D02*
D03*
Y00284393D02*
D03*
Y00271693D02*
D03*
Y00258993D02*
D03*
X00561852Y00297092D02*
D03*
Y00284393D02*
D03*
Y00271693D02*
D03*
Y00258993D02*
D03*
X01070000Y00176604D02*
D03*
Y00163904D02*
D03*
Y00151204D02*
D03*
Y00138504D02*
D03*
X01025000Y00176604D02*
D03*
Y00163904D02*
D03*
Y00151204D02*
D03*
Y00138504D02*
D03*
X00942400Y00298898D02*
D03*
Y00286198D02*
D03*
Y00273498D02*
D03*
Y00260798D02*
D03*
X00897400Y00298898D02*
D03*
Y00286198D02*
D03*
Y00273498D02*
D03*
Y00260798D02*
D03*
D29*
X00301898Y00220602D02*
D03*
X00283102D02*
D03*
X00390000Y00112500D02*
D03*
X00371204D02*
D03*
X00440000Y00354398D02*
D03*
X00421204D02*
D03*
X00625602Y00219398D02*
D03*
X00644398D02*
D03*
X00713704Y00112500D02*
D03*
X00732500D02*
D03*
X00782500Y00355200D02*
D03*
X00763704D02*
D03*
X00963102Y00220200D02*
D03*
X00981898D02*
D03*
X01051204Y00113302D02*
D03*
X01070000D02*
D03*
X01101204Y00355802D02*
D03*
X01120000D02*
D03*
X00218602Y00328102D02*
D03*
X00237398D02*
D03*
X00203602Y00446102D02*
D03*
X00222398D02*
D03*
X00268102Y00328102D02*
D03*
X00286898D02*
D03*
X00301898Y00193102D02*
D03*
X00283102D02*
D03*
X00259398Y00220602D02*
D03*
X00240602D02*
D03*
X00421204Y00329398D02*
D03*
X00440000D02*
D03*
X00379706Y00274398D02*
D03*
X00398502D02*
D03*
X00356204Y00394398D02*
D03*
X00375000D02*
D03*
X00580500Y00325093D02*
D03*
X00561704D02*
D03*
X00565500Y00443092D02*
D03*
X00546704D02*
D03*
X00644398Y00191898D02*
D03*
X00625602D02*
D03*
X00629500Y00325093D02*
D03*
X00610704D02*
D03*
X00583102Y00218796D02*
D03*
X00601898D02*
D03*
X00782500Y00329598D02*
D03*
X00763704D02*
D03*
X00741002Y00275200D02*
D03*
X00722206D02*
D03*
X00717500Y00393996D02*
D03*
X00698704D02*
D03*
X00898650Y00326898D02*
D03*
X00917446D02*
D03*
X00901048Y00444898D02*
D03*
X00882252D02*
D03*
X00963102Y00193302D02*
D03*
X00981898D02*
D03*
X00946252Y00327398D02*
D03*
X00965048D02*
D03*
X00937446Y00220000D02*
D03*
X00918650D02*
D03*
X01101204Y00330200D02*
D03*
X01120000D02*
D03*
X01059706Y00275802D02*
D03*
X01078502D02*
D03*
X01036204Y00394598D02*
D03*
X01055000D02*
D03*
D30*
X00185000Y00483102D02*
D03*
Y00501898D02*
D03*
X00307500Y00167500D02*
D03*
Y00148704D02*
D03*
X00185000Y00343704D02*
D03*
Y00362500D02*
D03*
X00272300Y00408102D02*
D03*
Y00426898D02*
D03*
X00345000Y00217300D02*
D03*
Y00198504D02*
D03*
X00296000Y00258704D02*
D03*
Y00277500D02*
D03*
X00185000Y00242704D02*
D03*
Y00261500D02*
D03*
X00337700Y00309398D02*
D03*
Y00290602D02*
D03*
X00528102Y00498889D02*
D03*
Y00480093D02*
D03*
X00650000Y00148102D02*
D03*
Y00166898D02*
D03*
X00528102Y00341297D02*
D03*
Y00360093D02*
D03*
X00615402Y00405093D02*
D03*
Y00423889D02*
D03*
X00687500Y00198504D02*
D03*
Y00217300D02*
D03*
X00675000Y00310694D02*
D03*
Y00291898D02*
D03*
X00639102Y00255695D02*
D03*
Y00274491D02*
D03*
X00528404Y00240196D02*
D03*
Y00258993D02*
D03*
X00863650Y00500694D02*
D03*
Y00481898D02*
D03*
X00987500Y00148704D02*
D03*
Y00167500D02*
D03*
X00863650Y00361898D02*
D03*
Y00343102D02*
D03*
X00950950Y00425694D02*
D03*
Y00406898D02*
D03*
X01025000Y00199306D02*
D03*
Y00218102D02*
D03*
X01017700Y00292006D02*
D03*
Y00310802D02*
D03*
X00974650Y00257500D02*
D03*
Y00276296D02*
D03*
X00863952Y00242002D02*
D03*
Y00260798D02*
D03*
X00427500Y00161204D02*
D03*
Y00180000D02*
D03*
X00428102Y00274398D02*
D03*
Y00255602D02*
D03*
X00465602Y00332500D02*
D03*
Y00351296D02*
D03*
X00455000Y00180000D02*
D03*
Y00161204D02*
D03*
X00277500Y00167500D02*
D03*
Y00148704D02*
D03*
X00410000Y00424398D02*
D03*
Y00405602D02*
D03*
X00375000Y00441296D02*
D03*
Y00422500D02*
D03*
X00137500Y00256204D02*
D03*
Y00275000D02*
D03*
X00770000Y00161404D02*
D03*
Y00180200D02*
D03*
X00770602Y00256404D02*
D03*
Y00275200D02*
D03*
X00808102Y00352098D02*
D03*
Y00333302D02*
D03*
X00797500Y00161404D02*
D03*
Y00180200D02*
D03*
X00620000Y00148102D02*
D03*
Y00166898D02*
D03*
X00768102Y00405200D02*
D03*
Y00423996D02*
D03*
X00718102Y00419491D02*
D03*
Y00438287D02*
D03*
X00480602Y00270694D02*
D03*
Y00251898D02*
D03*
X01107500Y00162206D02*
D03*
Y00181002D02*
D03*
X01108102Y00257006D02*
D03*
Y00275802D02*
D03*
X01145602Y00352700D02*
D03*
Y00333904D02*
D03*
X01135000Y00181002D02*
D03*
Y00162206D02*
D03*
X00957500Y00168302D02*
D03*
Y00149506D02*
D03*
X01105602Y00423996D02*
D03*
Y00405200D02*
D03*
X01055000Y00436296D02*
D03*
Y00417500D02*
D03*
X00816150Y00254702D02*
D03*
Y00273498D02*
D03*
X00185000Y00306500D02*
D03*
Y00287704D02*
D03*
X00528404Y00284393D02*
D03*
Y00303188D02*
D03*
X00863952Y00304994D02*
D03*
Y00286198D02*
D03*
D31*
X01150000Y00875000D02*
D03*
X00150000D02*
D03*
X01150000Y00125000D02*
D03*
X00150000D02*
D03*
D32*
X00694800Y00872400D02*
D03*
Y00720000D02*
D03*
X01145000Y00722500D02*
D03*
X00285000Y00662500D02*
D03*
X00799600Y00900000D02*
D03*
X00566700Y00100000D02*
D03*
D33*
X00669400Y00872400D02*
D03*
X00644000D02*
D03*
X00618600D02*
D03*
X00593200D02*
D03*
X00567800D02*
D03*
X00542400D02*
D03*
X00517000D02*
D03*
X00491600D02*
D03*
X00466200D02*
D03*
X00440800D02*
D03*
X00415400D02*
D03*
X00390000D02*
D03*
X00364600D02*
D03*
X00339200D02*
D03*
X00313800D02*
D03*
X00212200D02*
D03*
X00237600D02*
D03*
X00263000D02*
D03*
X00288400D02*
D03*
Y00720000D02*
D03*
X00263000D02*
D03*
X00237600D02*
D03*
X00212200D02*
D03*
X00313800D02*
D03*
X00339200D02*
D03*
X00364600D02*
D03*
X00390000D02*
D03*
X00415400D02*
D03*
X00440800D02*
D03*
X00466200D02*
D03*
X00491600D02*
D03*
X00517000D02*
D03*
X00542400D02*
D03*
X00567800D02*
D03*
X00593200D02*
D03*
X00618600D02*
D03*
X00644000D02*
D03*
X00669400D02*
D03*
X00125000Y00611700D02*
D03*
Y00637100D02*
D03*
Y00662500D02*
D03*
X01145000Y00747900D02*
D03*
X00850400Y00900000D02*
D03*
X00825000D02*
D03*
X01150000Y00600800D02*
D03*
Y00575400D02*
D03*
Y00550000D02*
D03*
X00642900Y00100000D02*
D03*
X00617500D02*
D03*
X00592100D02*
D03*
D34*
X00125000Y00687900D02*
D03*
X00207500Y00177500D02*
D03*
X00222500Y00585000D02*
D03*
X00670000Y00635000D02*
D03*
X00792500Y00702500D02*
D03*
X00287500Y00615000D02*
D03*
X00967500Y00725000D02*
D03*
X00795000Y00575000D02*
D03*
X00830000Y00810000D02*
D03*
X00570000Y00585000D02*
D03*
X01150000Y00524600D02*
D03*
X00545000Y00170000D02*
D03*
X00907500Y00167500D02*
D03*
D35*
X00755000Y00378796D02*
D03*
X00651296Y00312500D02*
D03*
X00505000Y00252500D02*
D03*
X00427500Y00232500D02*
D03*
X00415000Y00377500D02*
D03*
X00480602Y00223194D02*
D03*
X00465000Y00370000D02*
D03*
X00425000Y00530000D02*
D03*
X00644000Y00659000D02*
D03*
X00700000Y00650000D02*
D03*
X00365000Y00765000D02*
D03*
X01047500Y00700000D02*
D03*
X00947500D02*
D03*
X00732500D02*
D03*
X00925000Y00660000D02*
D03*
X00895302Y00658698D02*
D03*
X01010000Y00595000D02*
D03*
X01087500Y00537500D02*
D03*
X00992500Y00512500D02*
D03*
X00948850Y00542500D02*
D03*
X01080000Y00440000D02*
D03*
X01145602Y00373796D02*
D03*
X01095602Y00376496D02*
D03*
X01120000Y00232500D02*
D03*
Y00200000D02*
D03*
X01095000Y00113302D02*
D03*
X01006150Y00200000D02*
D03*
X00997446Y00256204D02*
D03*
X01025602Y00260000D02*
D03*
X00988650Y00310000D02*
D03*
X00948850Y00361898D02*
D03*
X00992500Y00406496D02*
D03*
X00948850Y00441150D02*
D03*
X00822500Y00467500D02*
D03*
X00841150Y00440798D02*
D03*
X00785000Y00467500D02*
D03*
X00750000Y00457500D02*
D03*
X00743102Y00438194D02*
D03*
X00662500Y00492500D02*
D03*
X00640000Y00512500D02*
D03*
X00615402Y00542500D02*
D03*
X00698704Y00565000D02*
D03*
X00645000Y00587500D02*
D03*
X00570000Y00642500D02*
D03*
X00522500Y00655000D02*
D03*
X00348604Y00638896D02*
D03*
X00162500Y00445000D02*
D03*
X00272300D02*
D03*
X00185000Y00415000D02*
D03*
X00272300Y00362500D02*
D03*
X00297500Y00407500D02*
D03*
X00310000Y00310000D02*
D03*
X00318796Y00258704D02*
D03*
X00345000Y00252500D02*
D03*
X00322500Y00200000D02*
D03*
X00415000Y00112500D02*
D03*
X00765000Y00135000D02*
D03*
X00782500Y00200000D02*
D03*
X00777500Y00232500D02*
D03*
X00816150Y00225998D02*
D03*
X00842500Y00255000D02*
D03*
X00838048Y00289306D02*
D03*
X00807500Y00372500D02*
D03*
X00640000Y00405000D02*
D03*
X00615402Y00441991D02*
D03*
X00480000Y00475000D02*
D03*
X00445000D02*
D03*
X00397500Y00445000D02*
D03*
X00352500Y00512500D02*
D03*
X00350000Y00550000D02*
D03*
X00387500Y00562500D02*
D03*
X00137500Y00227500D02*
D03*
X00162500Y00255000D02*
D03*
X00155000Y00300000D02*
D03*
X00750000Y00567500D02*
D03*
X00863650Y00417500D02*
D03*
X00665602Y00200694D02*
D03*
X00661898Y00256898D02*
D03*
X00688102Y00262500D02*
D03*
X00615402Y00363194D02*
D03*
X00527500Y00415000D02*
D03*
X00505602Y00441991D02*
D03*
X00445000Y00442500D02*
D03*
X00427500Y00197500D02*
D03*
X00808102Y00634398D02*
D03*
X00502500Y00287500D02*
D03*
D36*
X00247700Y00483102D02*
D03*
X00235000D02*
D03*
X00222300D02*
D03*
X00209600D02*
D03*
X00247700Y00528102D02*
D03*
X00235000D02*
D03*
X00222300D02*
D03*
X00209600D02*
D03*
Y00408102D02*
D03*
X00222300D02*
D03*
X00235000D02*
D03*
X00247700D02*
D03*
X00209600Y00363102D02*
D03*
X00222300D02*
D03*
X00235000D02*
D03*
X00247700D02*
D03*
X00360402Y00354398D02*
D03*
X00373102D02*
D03*
X00385802D02*
D03*
X00398502D02*
D03*
X00360402Y00309398D02*
D03*
X00373102D02*
D03*
X00385802D02*
D03*
X00398502D02*
D03*
X00552702Y00525093D02*
D03*
X00565402D02*
D03*
X00578102D02*
D03*
X00590802D02*
D03*
X00552702Y00480093D02*
D03*
X00565402D02*
D03*
X00578102D02*
D03*
X00590802D02*
D03*
Y00360093D02*
D03*
X00578102D02*
D03*
X00565402D02*
D03*
X00552702D02*
D03*
X00590802Y00405093D02*
D03*
X00578102D02*
D03*
X00565402D02*
D03*
X00552702D02*
D03*
X00741002Y00309598D02*
D03*
X00728302D02*
D03*
X00715602D02*
D03*
X00702902D02*
D03*
X00741002Y00354598D02*
D03*
X00728302D02*
D03*
X00715602D02*
D03*
X00702902D02*
D03*
X00926350Y00481898D02*
D03*
X00913650D02*
D03*
X00900950D02*
D03*
X00888250D02*
D03*
X00926350Y00526898D02*
D03*
X00913650D02*
D03*
X00900950D02*
D03*
X00888250D02*
D03*
X00926350Y00361898D02*
D03*
X00913650D02*
D03*
X00900950D02*
D03*
X00888250D02*
D03*
X00926350Y00406898D02*
D03*
X00913650D02*
D03*
X00900950D02*
D03*
X00888250D02*
D03*
X01040402Y00355200D02*
D03*
X01053102D02*
D03*
X01065802D02*
D03*
X01078502D02*
D03*
X01040402Y00310200D02*
D03*
X01053102D02*
D03*
X01065802D02*
D03*
X01078502D02*
D03*
M02*
