G04 Layer_Color=32896*
%FSAX44Y44*%
%MOMM*%
G71*
G01*
G75*
%ADD24C,0.2500*%
%ADD25C,0.2000*%
%ADD26C,0.2540*%
D24*
X00868335Y00323331D02*
X00870002Y00324997D01*
X00873334D01*
X00875000Y00323331D01*
Y00316666D01*
X00873334Y00315000D01*
X00870002D01*
X00868335Y00316666D01*
X00858339Y00324997D02*
X00865003D01*
Y00319998D01*
X00861671Y00321665D01*
X00860005D01*
X00858339Y00319998D01*
Y00316666D01*
X00860005Y00315000D01*
X00863337D01*
X00865003Y00316666D01*
X00848342Y00324997D02*
X00851674Y00323331D01*
X00855006Y00319998D01*
Y00316666D01*
X00853340Y00315000D01*
X00850008D01*
X00848342Y00316666D01*
Y00318332D01*
X00850008Y00319998D01*
X00855006D01*
X00528335Y00323331D02*
X00530002Y00324997D01*
X00533334D01*
X00535000Y00323331D01*
Y00316666D01*
X00533334Y00315000D01*
X00530002D01*
X00528335Y00316666D01*
X00518339Y00324997D02*
X00525003D01*
Y00319998D01*
X00521671Y00321665D01*
X00520005D01*
X00518339Y00319998D01*
Y00316666D01*
X00520005Y00315000D01*
X00523337D01*
X00525003Y00316666D01*
X00508342Y00324997D02*
X00515006D01*
Y00319998D01*
X00511674Y00321665D01*
X00510008D01*
X00508342Y00319998D01*
Y00316666D01*
X00510008Y00315000D01*
X00513340D01*
X00515006Y00316666D01*
X00163335Y00323331D02*
X00165002Y00324997D01*
X00168334D01*
X00170000Y00323331D01*
Y00316666D01*
X00168334Y00315000D01*
X00165002D01*
X00163335Y00316666D01*
X00153339Y00324997D02*
X00160003D01*
Y00319998D01*
X00156671Y00321665D01*
X00155005D01*
X00153339Y00319998D01*
Y00316666D01*
X00155005Y00315000D01*
X00158337D01*
X00160003Y00316666D01*
X00145008Y00315000D02*
Y00324997D01*
X00150006Y00319998D01*
X00143342D01*
X00575000Y00129997D02*
X00568335Y00120000D01*
Y00129997D02*
X00575000Y00120000D01*
X00565003D02*
Y00129997D01*
X00560005D01*
X00558339Y00128331D01*
Y00124998D01*
X00560005Y00123332D01*
X00565003D01*
X00550008Y00120000D02*
Y00129997D01*
X00555006Y00124998D01*
X00548342D01*
X00837500Y00877497D02*
X00830835Y00867500D01*
Y00877497D02*
X00837500Y00867500D01*
X00827503D02*
Y00877497D01*
X00822505D01*
X00820839Y00875831D01*
Y00872498D01*
X00822505Y00870832D01*
X00827503D01*
X00810842Y00867500D02*
X00817506D01*
X00810842Y00874165D01*
Y00875831D01*
X00812508Y00877497D01*
X00815840D01*
X00817506Y00875831D01*
X01172500Y00629997D02*
X01165835Y00620000D01*
Y00629997D02*
X01172500Y00620000D01*
X01162503D02*
Y00629997D01*
X01157505D01*
X01155839Y00628331D01*
Y00624998D01*
X01157505Y00623332D01*
X01162503D01*
X01152506Y00620000D02*
X01149174D01*
X01150840D01*
Y00629997D01*
X01152506Y00628331D01*
X00822500Y00287500D02*
Y00297497D01*
X00817502D01*
X00815835Y00295831D01*
Y00292498D01*
X00817502Y00290832D01*
X00822500D01*
X00819168D02*
X00815835Y00287500D01*
X00805839Y00297497D02*
X00812503D01*
Y00292498D01*
X00809171Y00294165D01*
X00807505D01*
X00805839Y00292498D01*
Y00289166D01*
X00807505Y00287500D01*
X00810837D01*
X00812503Y00289166D01*
X00802506Y00297497D02*
X00795842D01*
Y00295831D01*
X00802506Y00289166D01*
Y00287500D01*
X01040000Y00415000D02*
Y00424997D01*
X01035002D01*
X01033335Y00423331D01*
Y00419998D01*
X01035002Y00418332D01*
X01040000D01*
X01036668D02*
X01033335Y00415000D01*
X01023339Y00424997D02*
X01030003D01*
Y00419998D01*
X01026671Y00421665D01*
X01025005D01*
X01023339Y00419998D01*
Y00416666D01*
X01025005Y00415000D01*
X01028337D01*
X01030003Y00416666D01*
X01013342Y00424997D02*
X01016674Y00423331D01*
X01020006Y00419998D01*
Y00416666D01*
X01018340Y00415000D01*
X01015008D01*
X01013342Y00416666D01*
Y00418332D01*
X01015008Y00419998D01*
X01020006D01*
X01065000Y00450000D02*
Y00459997D01*
X01060002D01*
X01058335Y00458331D01*
Y00454998D01*
X01060002Y00453332D01*
X01065000D01*
X01061668D02*
X01058335Y00450000D01*
X01048339Y00459997D02*
X01055003D01*
Y00454998D01*
X01051671Y00456665D01*
X01050005D01*
X01048339Y00454998D01*
Y00451666D01*
X01050005Y00450000D01*
X01053337D01*
X01055003Y00451666D01*
X01038342Y00459997D02*
X01045006D01*
Y00454998D01*
X01041674Y00456665D01*
X01040008D01*
X01038342Y00454998D01*
Y00451666D01*
X01040008Y00450000D01*
X01043340D01*
X01045006Y00451666D01*
X01082500Y00247500D02*
Y00257497D01*
X01077502D01*
X01075835Y00255831D01*
Y00252498D01*
X01077502Y00250832D01*
X01082500D01*
X01079168D02*
X01075835Y00247500D01*
X01065839Y00257497D02*
X01072503D01*
Y00252498D01*
X01069171Y00254165D01*
X01067505D01*
X01065839Y00252498D01*
Y00249166D01*
X01067505Y00247500D01*
X01070837D01*
X01072503Y00249166D01*
X01057508Y00247500D02*
Y00257497D01*
X01062506Y00252498D01*
X01055842D01*
X01122500Y00437500D02*
Y00447497D01*
X01117502D01*
X01115835Y00445831D01*
Y00442498D01*
X01117502Y00440832D01*
X01122500D01*
X01119168D02*
X01115835Y00437500D01*
X01105839Y00447497D02*
X01112503D01*
Y00442498D01*
X01109171Y00444165D01*
X01107505D01*
X01105839Y00442498D01*
Y00439166D01*
X01107505Y00437500D01*
X01110837D01*
X01112503Y00439166D01*
X01102506Y00445831D02*
X01100840Y00447497D01*
X01097508D01*
X01095842Y00445831D01*
Y00444165D01*
X01097508Y00442498D01*
X01099174D01*
X01097508D01*
X01095842Y00440832D01*
Y00439166D01*
X01097508Y00437500D01*
X01100840D01*
X01102506Y00439166D01*
X01120000Y00302500D02*
Y00312497D01*
X01115002D01*
X01113335Y00310831D01*
Y00307498D01*
X01115002Y00305832D01*
X01120000D01*
X01116668D02*
X01113335Y00302500D01*
X01103339Y00312497D02*
X01110003D01*
Y00307498D01*
X01106671Y00309165D01*
X01105005D01*
X01103339Y00307498D01*
Y00304166D01*
X01105005Y00302500D01*
X01108337D01*
X01110003Y00304166D01*
X01100006Y00302500D02*
X01096674D01*
X01098340D01*
Y00312497D01*
X01100006Y00310831D01*
X00967500Y00122500D02*
Y00132497D01*
X00962502D01*
X00960835Y00130831D01*
Y00127498D01*
X00962502Y00125832D01*
X00967500D01*
X00964168D02*
X00960835Y00122500D01*
X00950839Y00132497D02*
X00957503D01*
Y00127498D01*
X00954171Y00129164D01*
X00952505D01*
X00950839Y00127498D01*
Y00124166D01*
X00952505Y00122500D01*
X00955837D01*
X00957503Y00124166D01*
X00947506Y00130831D02*
X00945840Y00132497D01*
X00942508D01*
X00940842Y00130831D01*
Y00124166D01*
X00942508Y00122500D01*
X00945840D01*
X00947506Y00124166D01*
Y00130831D01*
X00912500Y00192500D02*
Y00202497D01*
X00907502D01*
X00905835Y00200831D01*
Y00197498D01*
X00907502Y00195832D01*
X00912500D01*
X00909168D02*
X00905835Y00192500D01*
X00897505D02*
Y00202497D01*
X00902503Y00197498D01*
X00895839D01*
X00892506Y00194166D02*
X00890840Y00192500D01*
X00887508D01*
X00885842Y00194166D01*
Y00200831D01*
X00887508Y00202497D01*
X00890840D01*
X00892506Y00200831D01*
Y00199165D01*
X00890840Y00197498D01*
X00885842D01*
X01180000Y00177500D02*
Y00187497D01*
X01175002D01*
X01173335Y00185831D01*
Y00182498D01*
X01175002Y00180832D01*
X01180000D01*
X01176668D02*
X01173335Y00177500D01*
X01165005D02*
Y00187497D01*
X01170003Y00182498D01*
X01163339D01*
X01160006Y00185831D02*
X01158340Y00187497D01*
X01155008D01*
X01153342Y00185831D01*
Y00184165D01*
X01155008Y00182498D01*
X01153342Y00180832D01*
Y00179166D01*
X01155008Y00177500D01*
X01158340D01*
X01160006Y00179166D01*
Y00180832D01*
X01158340Y00182498D01*
X01160006Y00184165D01*
Y00185831D01*
X01158340Y00182498D02*
X01155008D01*
X00990000Y00362500D02*
Y00372497D01*
X00985002D01*
X00983335Y00370831D01*
Y00367498D01*
X00985002Y00365832D01*
X00990000D01*
X00986668D02*
X00983335Y00362500D01*
X00975005D02*
Y00372497D01*
X00980003Y00367498D01*
X00973339D01*
X00970006Y00372497D02*
X00963342D01*
Y00370831D01*
X00970006Y00364166D01*
Y00362500D01*
X01162500Y00307500D02*
Y00317497D01*
X01157502D01*
X01155835Y00315831D01*
Y00312498D01*
X01157502Y00310832D01*
X01162500D01*
X01159168D02*
X01155835Y00307500D01*
X01147505D02*
Y00317497D01*
X01152503Y00312498D01*
X01145839D01*
X01135842Y00317497D02*
X01139174Y00315831D01*
X01142506Y00312498D01*
Y00309166D01*
X01140840Y00307500D01*
X01137508D01*
X01135842Y00309166D01*
Y00310832D01*
X01137508Y00312498D01*
X01142506D01*
X01135000Y00280000D02*
X01125003D01*
Y00275002D01*
X01126669Y00273335D01*
X01130002D01*
X01131668Y00275002D01*
Y00280000D01*
Y00276668D02*
X01135000Y00273335D01*
Y00265005D02*
X01125003D01*
X01130002Y00270003D01*
Y00263339D01*
X01125003Y00253342D02*
Y00260006D01*
X01130002D01*
X01128335Y00256674D01*
Y00255008D01*
X01130002Y00253342D01*
X01133334D01*
X01135000Y00255008D01*
Y00258340D01*
X01133334Y00260006D01*
X00950000Y00187500D02*
Y00197497D01*
X00945002D01*
X00943335Y00195831D01*
Y00192498D01*
X00945002Y00190832D01*
X00950000D01*
X00946668D02*
X00943335Y00187500D01*
X00935005D02*
Y00197497D01*
X00940003Y00192498D01*
X00933339D01*
X00925008Y00187500D02*
Y00197497D01*
X00930006Y00192498D01*
X00923342D01*
X00942500Y00450000D02*
Y00459997D01*
X00937502D01*
X00935835Y00458331D01*
Y00454998D01*
X00937502Y00453332D01*
X00942500D01*
X00939168D02*
X00935835Y00450000D01*
X00927505D02*
Y00459997D01*
X00932503Y00454998D01*
X00925839D01*
X00922506Y00458331D02*
X00920840Y00459997D01*
X00917508D01*
X00915842Y00458331D01*
Y00456665D01*
X00917508Y00454998D01*
X00919174D01*
X00917508D01*
X00915842Y00453332D01*
Y00451666D01*
X00917508Y00450000D01*
X00920840D01*
X00922506Y00451666D01*
X01122500Y00150000D02*
X01112503D01*
Y00145002D01*
X01114169Y00143336D01*
X01117502D01*
X01119168Y00145002D01*
Y00150000D01*
Y00146668D02*
X01122500Y00143336D01*
Y00135005D02*
X01112503D01*
X01117502Y00140003D01*
Y00133339D01*
X01122500Y00123342D02*
Y00130006D01*
X01115835Y00123342D01*
X01114169D01*
X01112503Y00125008D01*
Y00128340D01*
X01114169Y00130006D01*
X00987500Y00345000D02*
Y00354997D01*
X00982502D01*
X00980835Y00353331D01*
Y00349998D01*
X00982502Y00348332D01*
X00987500D01*
X00984168D02*
X00980835Y00345000D01*
X00972505D02*
Y00354997D01*
X00977503Y00349998D01*
X00970839D01*
X00967506Y00345000D02*
X00964174D01*
X00965840D01*
Y00354997D01*
X00967506Y00353331D01*
X00515000Y00230000D02*
Y00239997D01*
X00510002D01*
X00508335Y00238331D01*
Y00234998D01*
X00510002Y00233332D01*
X00515000D01*
X00511668D02*
X00508335Y00230000D01*
X00500005D02*
Y00239997D01*
X00505003Y00234998D01*
X00498339D01*
X00495006Y00238331D02*
X00493340Y00239997D01*
X00490008D01*
X00488342Y00238331D01*
Y00231666D01*
X00490008Y00230000D01*
X00493340D01*
X00495006Y00231666D01*
Y00238331D01*
X00700000Y00410000D02*
Y00419997D01*
X00695002D01*
X00693335Y00418331D01*
Y00414998D01*
X00695002Y00413332D01*
X00700000D01*
X00696668D02*
X00693335Y00410000D01*
X00690003Y00418331D02*
X00688337Y00419997D01*
X00685005D01*
X00683339Y00418331D01*
Y00416665D01*
X00685005Y00414998D01*
X00686671D01*
X00685005D01*
X00683339Y00413332D01*
Y00411666D01*
X00685005Y00410000D01*
X00688337D01*
X00690003Y00411666D01*
X00680006D02*
X00678340Y00410000D01*
X00675008D01*
X00673342Y00411666D01*
Y00418331D01*
X00675008Y00419997D01*
X00678340D01*
X00680006Y00418331D01*
Y00416665D01*
X00678340Y00414998D01*
X00673342D01*
X00730000Y00452500D02*
Y00462497D01*
X00725002D01*
X00723335Y00460831D01*
Y00457498D01*
X00725002Y00455832D01*
X00730000D01*
X00726668D02*
X00723335Y00452500D01*
X00720003Y00460831D02*
X00718337Y00462497D01*
X00715005D01*
X00713339Y00460831D01*
Y00459165D01*
X00715005Y00457498D01*
X00716671D01*
X00715005D01*
X00713339Y00455832D01*
Y00454166D01*
X00715005Y00452500D01*
X00718337D01*
X00720003Y00454166D01*
X00710006Y00460831D02*
X00708340Y00462497D01*
X00705008D01*
X00703342Y00460831D01*
Y00459165D01*
X00705008Y00457498D01*
X00703342Y00455832D01*
Y00454166D01*
X00705008Y00452500D01*
X00708340D01*
X00710006Y00454166D01*
Y00455832D01*
X00708340Y00457498D01*
X00710006Y00459165D01*
Y00460831D01*
X00708340Y00457498D02*
X00705008D01*
X00747500Y00245000D02*
Y00254997D01*
X00742502D01*
X00740835Y00253331D01*
Y00249998D01*
X00742502Y00248332D01*
X00747500D01*
X00744168D02*
X00740835Y00245000D01*
X00737503Y00253331D02*
X00735837Y00254997D01*
X00732505D01*
X00730839Y00253331D01*
Y00251665D01*
X00732505Y00249998D01*
X00734171D01*
X00732505D01*
X00730839Y00248332D01*
Y00246666D01*
X00732505Y00245000D01*
X00735837D01*
X00737503Y00246666D01*
X00727506Y00254997D02*
X00720842D01*
Y00253331D01*
X00727506Y00246666D01*
Y00245000D01*
X00792500Y00437500D02*
Y00447497D01*
X00787502D01*
X00785835Y00445831D01*
Y00442498D01*
X00787502Y00440832D01*
X00792500D01*
X00789168D02*
X00785835Y00437500D01*
X00782503Y00445831D02*
X00780837Y00447497D01*
X00777505D01*
X00775839Y00445831D01*
Y00444165D01*
X00777505Y00442498D01*
X00779171D01*
X00777505D01*
X00775839Y00440832D01*
Y00439166D01*
X00777505Y00437500D01*
X00780837D01*
X00782503Y00439166D01*
X00765842Y00447497D02*
X00769174Y00445831D01*
X00772506Y00442498D01*
Y00439166D01*
X00770840Y00437500D01*
X00767508D01*
X00765842Y00439166D01*
Y00440832D01*
X00767508Y00442498D01*
X00772506D01*
X00797500Y00370000D02*
Y00379997D01*
X00792502D01*
X00790835Y00378331D01*
Y00374998D01*
X00792502Y00373332D01*
X00797500D01*
X00794168D02*
X00790835Y00370000D01*
X00787503Y00378331D02*
X00785837Y00379997D01*
X00782505D01*
X00780839Y00378331D01*
Y00376665D01*
X00782505Y00374998D01*
X00784171D01*
X00782505D01*
X00780839Y00373332D01*
Y00371666D01*
X00782505Y00370000D01*
X00785837D01*
X00787503Y00371666D01*
X00772508Y00370000D02*
Y00379997D01*
X00777506Y00374998D01*
X00770842D01*
X00600000Y00170000D02*
X00590003D01*
Y00165002D01*
X00591669Y00163335D01*
X00595002D01*
X00596668Y00165002D01*
Y00170000D01*
Y00166668D02*
X00600000Y00163335D01*
X00591669Y00160003D02*
X00590003Y00158337D01*
Y00155005D01*
X00591669Y00153339D01*
X00593335D01*
X00595002Y00155005D01*
Y00156671D01*
Y00155005D01*
X00596668Y00153339D01*
X00598334D01*
X00600000Y00155005D01*
Y00158337D01*
X00598334Y00160003D01*
X00591669Y00150006D02*
X00590003Y00148340D01*
Y00145008D01*
X00591669Y00143342D01*
X00593335D01*
X00595002Y00145008D01*
Y00146674D01*
Y00145008D01*
X00596668Y00143342D01*
X00598334D01*
X00600000Y00145008D01*
Y00148340D01*
X00598334Y00150006D01*
X00570000Y00215000D02*
Y00224997D01*
X00565002D01*
X00563335Y00223331D01*
Y00219998D01*
X00565002Y00218332D01*
X00570000D01*
X00566668D02*
X00563335Y00215000D01*
X00560003Y00223331D02*
X00558337Y00224997D01*
X00555005D01*
X00553339Y00223331D01*
Y00221665D01*
X00555005Y00219998D01*
X00556671D01*
X00555005D01*
X00553339Y00218332D01*
Y00216666D01*
X00555005Y00215000D01*
X00558337D01*
X00560003Y00216666D01*
X00543342Y00215000D02*
X00550006D01*
X00543342Y00221665D01*
Y00223331D01*
X00545008Y00224997D01*
X00548340D01*
X00550006Y00223331D01*
X00820000Y00195000D02*
Y00204997D01*
X00815002D01*
X00813335Y00203331D01*
Y00199998D01*
X00815002Y00198332D01*
X00820000D01*
X00816668D02*
X00813335Y00195000D01*
X00810003Y00203331D02*
X00808337Y00204997D01*
X00805005D01*
X00803339Y00203331D01*
Y00201665D01*
X00805005Y00199998D01*
X00806671D01*
X00805005D01*
X00803339Y00198332D01*
Y00196666D01*
X00805005Y00195000D01*
X00808337D01*
X00810003Y00196666D01*
X00800006Y00195000D02*
X00796674D01*
X00798340D01*
Y00204997D01*
X00800006Y00203331D01*
X00835000Y00357500D02*
X00825003D01*
Y00352502D01*
X00826669Y00350835D01*
X00830002D01*
X00831668Y00352502D01*
Y00357500D01*
Y00354168D02*
X00835000Y00350835D01*
X00826669Y00347503D02*
X00825003Y00345837D01*
Y00342505D01*
X00826669Y00340839D01*
X00828335D01*
X00830002Y00342505D01*
Y00344171D01*
Y00342505D01*
X00831668Y00340839D01*
X00833334D01*
X00835000Y00342505D01*
Y00345837D01*
X00833334Y00347503D01*
X00826669Y00337506D02*
X00825003Y00335840D01*
Y00332508D01*
X00826669Y00330842D01*
X00833334D01*
X00835000Y00332508D01*
Y00335840D01*
X00833334Y00337506D01*
X00826669D01*
X00782500Y00290000D02*
Y00299997D01*
X00777502D01*
X00775835Y00298331D01*
Y00294998D01*
X00777502Y00293332D01*
X00782500D01*
X00779168D02*
X00775835Y00290000D01*
X00765839D02*
X00772503D01*
X00765839Y00296665D01*
Y00298331D01*
X00767505Y00299997D01*
X00770837D01*
X00772503Y00298331D01*
X00762506Y00291666D02*
X00760840Y00290000D01*
X00757508D01*
X00755842Y00291666D01*
Y00298331D01*
X00757508Y00299997D01*
X00760840D01*
X00762506Y00298331D01*
Y00296665D01*
X00760840Y00294998D01*
X00755842D01*
X00675000Y00340000D02*
Y00349997D01*
X00670002D01*
X00668335Y00348331D01*
Y00344998D01*
X00670002Y00343332D01*
X00675000D01*
X00671668D02*
X00668335Y00340000D01*
X00658339D02*
X00665003D01*
X00658339Y00346665D01*
Y00348331D01*
X00660005Y00349997D01*
X00663337D01*
X00665003Y00348331D01*
X00655006D02*
X00653340Y00349997D01*
X00650008D01*
X00648342Y00348331D01*
Y00346665D01*
X00650008Y00344998D01*
X00648342Y00343332D01*
Y00341666D01*
X00650008Y00340000D01*
X00653340D01*
X00655006Y00341666D01*
Y00343332D01*
X00653340Y00344998D01*
X00655006Y00346665D01*
Y00348331D01*
X00653340Y00344998D02*
X00650008D01*
X00610000Y00185000D02*
Y00194997D01*
X00605002D01*
X00603335Y00193331D01*
Y00189998D01*
X00605002Y00188332D01*
X00610000D01*
X00606668D02*
X00603335Y00185000D01*
X00593339D02*
X00600003D01*
X00593339Y00191665D01*
Y00193331D01*
X00595005Y00194997D01*
X00598337D01*
X00600003Y00193331D01*
X00590006Y00194997D02*
X00583342D01*
Y00193331D01*
X00590006Y00186666D01*
Y00185000D01*
X00805000Y00135000D02*
Y00144997D01*
X00800002D01*
X00798335Y00143331D01*
Y00139998D01*
X00800002Y00138332D01*
X00805000D01*
X00801668D02*
X00798335Y00135000D01*
X00788339D02*
X00795003D01*
X00788339Y00141664D01*
Y00143331D01*
X00790005Y00144997D01*
X00793337D01*
X00795003Y00143331D01*
X00778342Y00144997D02*
X00781674Y00143331D01*
X00785006Y00139998D01*
Y00136666D01*
X00783340Y00135000D01*
X00780008D01*
X00778342Y00136666D01*
Y00138332D01*
X00780008Y00139998D01*
X00785006D01*
X00535000Y00452500D02*
Y00462497D01*
X00530002D01*
X00528335Y00460831D01*
Y00457498D01*
X00530002Y00455832D01*
X00535000D01*
X00531668D02*
X00528335Y00452500D01*
X00518339D02*
X00525003D01*
X00518339Y00459165D01*
Y00460831D01*
X00520005Y00462497D01*
X00523337D01*
X00525003Y00460831D01*
X00508342Y00462497D02*
X00515006D01*
Y00457498D01*
X00511674Y00459165D01*
X00510008D01*
X00508342Y00457498D01*
Y00454166D01*
X00510008Y00452500D01*
X00513340D01*
X00515006Y00454166D01*
X00640000Y00340000D02*
Y00349997D01*
X00635002D01*
X00633335Y00348331D01*
Y00344998D01*
X00635002Y00343332D01*
X00640000D01*
X00636668D02*
X00633335Y00340000D01*
X00623339D02*
X00630003D01*
X00623339Y00346665D01*
Y00348331D01*
X00625005Y00349997D01*
X00628337D01*
X00630003Y00348331D01*
X00615008Y00340000D02*
Y00349997D01*
X00620006Y00344998D01*
X00613342D01*
X00145542Y00290576D02*
Y00300573D01*
X00140544D01*
X00138877Y00298907D01*
Y00295574D01*
X00140544Y00293908D01*
X00145542D01*
X00142210D02*
X00138877Y00290576D01*
X00128881D02*
X00135545D01*
X00128881Y00297241D01*
Y00298907D01*
X00130547Y00300573D01*
X00133879D01*
X00135545Y00298907D01*
X00125548D02*
X00123882Y00300573D01*
X00120550D01*
X00118884Y00298907D01*
Y00297241D01*
X00120550Y00295574D01*
X00122216D01*
X00120550D01*
X00118884Y00293908D01*
Y00292242D01*
X00120550Y00290576D01*
X00123882D01*
X00125548Y00292242D01*
X00355000Y00410000D02*
Y00419997D01*
X00350002D01*
X00348335Y00418331D01*
Y00414998D01*
X00350002Y00413332D01*
X00355000D01*
X00351668D02*
X00348335Y00410000D01*
X00338339D02*
X00345003D01*
X00338339Y00416665D01*
Y00418331D01*
X00340005Y00419997D01*
X00343337D01*
X00345003Y00418331D01*
X00328342Y00410000D02*
X00335006D01*
X00328342Y00416665D01*
Y00418331D01*
X00330008Y00419997D01*
X00333340D01*
X00335006Y00418331D01*
X00385000Y00455000D02*
Y00464997D01*
X00380002D01*
X00378335Y00463331D01*
Y00459998D01*
X00380002Y00458332D01*
X00385000D01*
X00381668D02*
X00378335Y00455000D01*
X00368339D02*
X00375003D01*
X00368339Y00461665D01*
Y00463331D01*
X00370005Y00464997D01*
X00373337D01*
X00375003Y00463331D01*
X00365006Y00455000D02*
X00361674D01*
X00363340D01*
Y00464997D01*
X00365006Y00463331D01*
X00405000Y00250000D02*
Y00259997D01*
X00400002D01*
X00398335Y00258331D01*
Y00254998D01*
X00400002Y00253332D01*
X00405000D01*
X00401668D02*
X00398335Y00250000D01*
X00388339D02*
X00395003D01*
X00388339Y00256665D01*
Y00258331D01*
X00390005Y00259997D01*
X00393337D01*
X00395003Y00258331D01*
X00385006D02*
X00383340Y00259997D01*
X00380008D01*
X00378342Y00258331D01*
Y00251666D01*
X00380008Y00250000D01*
X00383340D01*
X00385006Y00251666D01*
Y00258331D01*
X00425000Y00465000D02*
X00415003D01*
Y00460002D01*
X00416669Y00458335D01*
X00420002D01*
X00421668Y00460002D01*
Y00465000D01*
Y00461668D02*
X00425000Y00458335D01*
Y00455003D02*
Y00451671D01*
Y00453337D01*
X00415003D01*
X00416669Y00455003D01*
X00423334Y00446673D02*
X00425000Y00445006D01*
Y00441674D01*
X00423334Y00440008D01*
X00416669D01*
X00415003Y00441674D01*
Y00445006D01*
X00416669Y00446673D01*
X00418335D01*
X00420002Y00445006D01*
Y00440008D01*
X00445000Y00302500D02*
Y00312497D01*
X00440002D01*
X00438335Y00310831D01*
Y00307498D01*
X00440002Y00305832D01*
X00445000D01*
X00441668D02*
X00438335Y00302500D01*
X00435003D02*
X00431671D01*
X00433337D01*
Y00312497D01*
X00435003Y00310831D01*
X00426673Y00312497D02*
X00420008D01*
Y00310831D01*
X00426673Y00304166D01*
Y00302500D01*
X00285000Y00125000D02*
Y00134997D01*
X00280002D01*
X00278335Y00133331D01*
Y00129998D01*
X00280002Y00128332D01*
X00285000D01*
X00281668D02*
X00278335Y00125000D01*
X00275003D02*
X00271671D01*
X00273337D01*
Y00134997D01*
X00275003Y00133331D01*
X00260008Y00134997D02*
X00263340Y00133331D01*
X00266673Y00129998D01*
Y00126666D01*
X00265006Y00125000D01*
X00261674D01*
X00260008Y00126666D01*
Y00128332D01*
X00261674Y00129998D01*
X00266673D01*
X00270000Y00240000D02*
Y00249997D01*
X00265002D01*
X00263335Y00248331D01*
Y00244998D01*
X00265002Y00243332D01*
X00270000D01*
X00266668D02*
X00263335Y00240000D01*
X00260003D02*
X00256671D01*
X00258337D01*
Y00249997D01*
X00260003Y00248331D01*
X00245008Y00249997D02*
X00251673D01*
Y00244998D01*
X00248340Y00246665D01*
X00246674D01*
X00245008Y00244998D01*
Y00241666D01*
X00246674Y00240000D01*
X00250006D01*
X00251673Y00241666D01*
X00480000Y00135000D02*
Y00144997D01*
X00475002D01*
X00473335Y00143331D01*
Y00139998D01*
X00475002Y00138332D01*
X00480000D01*
X00476668D02*
X00473335Y00135000D01*
X00470003D02*
X00466671D01*
X00468337D01*
Y00144997D01*
X00470003Y00143331D01*
X00456674Y00135000D02*
Y00144997D01*
X00461673Y00139998D01*
X00455008D01*
X00492500Y00355000D02*
X00482503D01*
Y00350002D01*
X00484169Y00348335D01*
X00487502D01*
X00489168Y00350002D01*
Y00355000D01*
Y00351668D02*
X00492500Y00348335D01*
Y00345003D02*
Y00341671D01*
Y00343337D01*
X00482503D01*
X00484169Y00345003D01*
Y00336673D02*
X00482503Y00335006D01*
Y00331674D01*
X00484169Y00330008D01*
X00485835D01*
X00487502Y00331674D01*
Y00333340D01*
Y00331674D01*
X00489168Y00330008D01*
X00490834D01*
X00492500Y00331674D01*
Y00335006D01*
X00490834Y00336673D01*
X00455000Y00275000D02*
X00445003D01*
Y00270002D01*
X00446669Y00268335D01*
X00450002D01*
X00451668Y00270002D01*
Y00275000D01*
Y00271668D02*
X00455000Y00268335D01*
Y00265003D02*
Y00261671D01*
Y00263337D01*
X00445003D01*
X00446669Y00265003D01*
X00455000Y00250008D02*
Y00256673D01*
X00448335Y00250008D01*
X00446669D01*
X00445003Y00251674D01*
Y00255006D01*
X00446669Y00256673D01*
X00270000Y00190000D02*
Y00199997D01*
X00265002D01*
X00263335Y00198331D01*
Y00194998D01*
X00265002Y00193332D01*
X00270000D01*
X00266668D02*
X00263335Y00190000D01*
X00260003D02*
X00256671D01*
X00258337D01*
Y00199997D01*
X00260003Y00198331D01*
X00251673Y00190000D02*
X00248340D01*
X00250006D01*
Y00199997D01*
X00251673Y00198331D01*
X00445000Y00135000D02*
Y00144997D01*
X00440002D01*
X00438335Y00143331D01*
Y00139998D01*
X00440002Y00138332D01*
X00445000D01*
X00441668D02*
X00438335Y00135000D01*
X00435003D02*
X00431671D01*
X00433337D01*
Y00144997D01*
X00435003Y00143331D01*
X00426673D02*
X00425006Y00144997D01*
X00421674D01*
X00420008Y00143331D01*
Y00136666D01*
X00421674Y00135000D01*
X00425006D01*
X00426673Y00136666D01*
Y00143331D01*
X00300000Y00345000D02*
Y00354997D01*
X00295002D01*
X00293335Y00353331D01*
Y00349998D01*
X00295002Y00348332D01*
X00300000D01*
X00296668D02*
X00293335Y00345000D01*
X00290003Y00346666D02*
X00288337Y00345000D01*
X00285005D01*
X00283339Y00346666D01*
Y00353331D01*
X00285005Y00354997D01*
X00288337D01*
X00290003Y00353331D01*
Y00351665D01*
X00288337Y00349998D01*
X00283339D01*
X00255000Y00445000D02*
Y00454997D01*
X00250002D01*
X00248335Y00453331D01*
Y00449998D01*
X00250002Y00448332D01*
X00255000D01*
X00251668D02*
X00248335Y00445000D01*
X00245003Y00453331D02*
X00243337Y00454997D01*
X00240005D01*
X00238339Y00453331D01*
Y00451665D01*
X00240005Y00449998D01*
X00238339Y00448332D01*
Y00446666D01*
X00240005Y00445000D01*
X00243337D01*
X00245003Y00446666D01*
Y00448332D01*
X00243337Y00449998D01*
X00245003Y00451665D01*
Y00453331D01*
X00243337Y00449998D02*
X00240005D01*
X00205000Y00320000D02*
Y00329997D01*
X00200002D01*
X00198335Y00328331D01*
Y00324998D01*
X00200002Y00323332D01*
X00205000D01*
X00201668D02*
X00198335Y00320000D01*
X00195003Y00329997D02*
X00188339D01*
Y00328331D01*
X00195003Y00321666D01*
Y00320000D01*
X00935000Y00244997D02*
Y00235000D01*
X00930002D01*
X00928335Y00236666D01*
Y00243331D01*
X00930002Y00244997D01*
X00935000D01*
X00925003Y00235000D02*
Y00241665D01*
X00921671Y00244997D01*
X00918339Y00241665D01*
Y00235000D01*
Y00239998D01*
X00925003D01*
X00915006Y00235000D02*
X00911674D01*
X00913340D01*
Y00244997D01*
X00915006Y00243331D01*
X00906676D02*
X00905010Y00244997D01*
X00901677D01*
X00900011Y00243331D01*
Y00241665D01*
X00901677Y00239998D01*
X00900011Y00238332D01*
Y00236666D01*
X00901677Y00235000D01*
X00905010D01*
X00906676Y00236666D01*
Y00238332D01*
X00905010Y00239998D01*
X00906676Y00241665D01*
Y00243331D01*
X00905010Y00239998D02*
X00901677D01*
X01015003Y00377500D02*
X01025000D01*
Y00372502D01*
X01023334Y00370835D01*
X01016669D01*
X01015003Y00372502D01*
Y00377500D01*
X01025000Y00367503D02*
X01018335D01*
X01015003Y00364171D01*
X01018335Y00360839D01*
X01025000D01*
X01020002D01*
Y00367503D01*
X01025000Y00357506D02*
Y00354174D01*
Y00355840D01*
X01015003D01*
X01016669Y00357506D01*
X01015003Y00342511D02*
X01016669Y00345844D01*
X01020002Y00349176D01*
X01023334D01*
X01025000Y00347510D01*
Y00344177D01*
X01023334Y00342511D01*
X01021668D01*
X01020002Y00344177D01*
Y00349176D01*
X00875000Y00402497D02*
Y00392500D01*
X00870002D01*
X00868335Y00394166D01*
Y00400831D01*
X00870002Y00402497D01*
X00875000D01*
X00865003Y00392500D02*
Y00399165D01*
X00861671Y00402497D01*
X00858339Y00399165D01*
Y00392500D01*
Y00397498D01*
X00865003D01*
X00855006Y00392500D02*
X00851674D01*
X00853340D01*
Y00402497D01*
X00855006Y00400831D01*
X00840011Y00402497D02*
X00846676D01*
Y00397498D01*
X00843344Y00399165D01*
X00841677D01*
X00840011Y00397498D01*
Y00394166D01*
X00841677Y00392500D01*
X00845010D01*
X00846676Y00394166D01*
X01082500Y00202497D02*
Y00192500D01*
X01077502D01*
X01075835Y00194166D01*
Y00200831D01*
X01077502Y00202497D01*
X01082500D01*
X01072503Y00192500D02*
Y00199165D01*
X01069171Y00202497D01*
X01065839Y00199165D01*
Y00192500D01*
Y00197498D01*
X01072503D01*
X01062506Y00192500D02*
X01059174D01*
X01060840D01*
Y00202497D01*
X01062506Y00200831D01*
X01049177Y00192500D02*
Y00202497D01*
X01054176Y00197498D01*
X01047511D01*
X00930000Y00559997D02*
Y00550000D01*
X00925002D01*
X00923335Y00551666D01*
Y00558331D01*
X00925002Y00559997D01*
X00930000D01*
X00920003Y00550000D02*
Y00556665D01*
X00916671Y00559997D01*
X00913339Y00556665D01*
Y00550000D01*
Y00554998D01*
X00920003D01*
X00910006Y00550000D02*
X00906674D01*
X00908340D01*
Y00559997D01*
X00910006Y00558331D01*
X00901676D02*
X00900010Y00559997D01*
X00896677D01*
X00895011Y00558331D01*
Y00556665D01*
X00896677Y00554998D01*
X00898344D01*
X00896677D01*
X00895011Y00553332D01*
Y00551666D01*
X00896677Y00550000D01*
X00900010D01*
X00901676Y00551666D01*
X00615000Y00244997D02*
Y00235000D01*
X00610002D01*
X00608335Y00236666D01*
Y00243331D01*
X00610002Y00244997D01*
X00615000D01*
X00605003Y00235000D02*
Y00241665D01*
X00601671Y00244997D01*
X00598339Y00241665D01*
Y00235000D01*
Y00239998D01*
X00605003D01*
X00595006Y00235000D02*
X00591674D01*
X00593340D01*
Y00244997D01*
X00595006Y00243331D01*
X00580011Y00235000D02*
X00586676D01*
X00580011Y00241665D01*
Y00243331D01*
X00581677Y00244997D01*
X00585010D01*
X00586676Y00243331D01*
X00677503Y00387500D02*
X00687500D01*
Y00382502D01*
X00685834Y00380835D01*
X00679169D01*
X00677503Y00382502D01*
Y00387500D01*
X00687500Y00377503D02*
X00680835D01*
X00677503Y00374171D01*
X00680835Y00370839D01*
X00687500D01*
X00682502D01*
Y00377503D01*
X00687500Y00367506D02*
Y00364174D01*
Y00365840D01*
X00677503D01*
X00679169Y00367506D01*
X00687500Y00359176D02*
Y00355844D01*
Y00357510D01*
X00677503D01*
X00679169Y00359176D01*
X00760000Y00204997D02*
Y00195000D01*
X00755002D01*
X00753335Y00196666D01*
Y00203331D01*
X00755002Y00204997D01*
X00760000D01*
X00750003Y00195000D02*
Y00201665D01*
X00746671Y00204997D01*
X00743339Y00201665D01*
Y00195000D01*
Y00199998D01*
X00750003D01*
X00740006Y00195000D02*
X00736674D01*
X00738340D01*
Y00204997D01*
X00740006Y00203331D01*
X00731676D02*
X00730010Y00204997D01*
X00726677D01*
X00725011Y00203331D01*
Y00196666D01*
X00726677Y00195000D01*
X00730010D01*
X00731676Y00196666D01*
Y00203331D01*
X00525003Y00402500D02*
X00535000D01*
Y00397502D01*
X00533334Y00395835D01*
X00526669D01*
X00525003Y00397502D01*
Y00402500D01*
X00535000Y00392503D02*
X00528335D01*
X00525003Y00389171D01*
X00528335Y00385839D01*
X00535000D01*
X00530002D01*
Y00392503D01*
X00533334Y00382506D02*
X00535000Y00380840D01*
Y00377508D01*
X00533334Y00375842D01*
X00526669D01*
X00525003Y00377508D01*
Y00380840D01*
X00526669Y00382506D01*
X00528335D01*
X00530002Y00380840D01*
Y00375842D01*
X00595376Y00559145D02*
Y00549148D01*
X00590378D01*
X00588712Y00550814D01*
Y00557479D01*
X00590378Y00559145D01*
X00595376D01*
X00585379Y00549148D02*
Y00555812D01*
X00582047Y00559145D01*
X00578715Y00555812D01*
Y00549148D01*
Y00554146D01*
X00585379D01*
X00575382Y00557479D02*
X00573716Y00559145D01*
X00570384D01*
X00568718Y00557479D01*
Y00555812D01*
X00570384Y00554146D01*
X00568718Y00552480D01*
Y00550814D01*
X00570384Y00549148D01*
X00573716D01*
X00575382Y00550814D01*
Y00552480D01*
X00573716Y00554146D01*
X00575382Y00555812D01*
Y00557479D01*
X00573716Y00554146D02*
X00570384D01*
X00230000Y00249997D02*
Y00240000D01*
X00225002D01*
X00223335Y00241666D01*
Y00248331D01*
X00225002Y00249997D01*
X00230000D01*
X00220003Y00240000D02*
Y00246665D01*
X00216671Y00249997D01*
X00213339Y00246665D01*
Y00240000D01*
Y00244998D01*
X00220003D01*
X00210006Y00249997D02*
X00203342D01*
Y00248331D01*
X00210006Y00241666D01*
Y00240000D01*
X00335003Y00370000D02*
X00345000D01*
Y00365002D01*
X00343334Y00363335D01*
X00336669D01*
X00335003Y00365002D01*
Y00370000D01*
X00345000Y00360003D02*
X00338335D01*
X00335003Y00356671D01*
X00338335Y00353339D01*
X00345000D01*
X00340002D01*
Y00360003D01*
X00335003Y00343342D02*
Y00350006D01*
X00340002D01*
X00338335Y00346674D01*
Y00345008D01*
X00340002Y00343342D01*
X00343334D01*
X00345000Y00345008D01*
Y00348340D01*
X00343334Y00350006D01*
X00400000Y00199997D02*
Y00190000D01*
X00395002D01*
X00393335Y00191666D01*
Y00198331D01*
X00395002Y00199997D01*
X00400000D01*
X00390003Y00190000D02*
Y00196665D01*
X00386671Y00199997D01*
X00383339Y00196665D01*
Y00190000D01*
Y00194998D01*
X00390003D01*
X00375008Y00190000D02*
Y00199997D01*
X00380006Y00194998D01*
X00373342D01*
X00185003Y00405000D02*
X00195000D01*
Y00400002D01*
X00193334Y00398335D01*
X00186669D01*
X00185003Y00400002D01*
Y00405000D01*
X00195000Y00395003D02*
X00188335D01*
X00185003Y00391671D01*
X00188335Y00388339D01*
X00195000D01*
X00190002D01*
Y00395003D01*
X00186669Y00385006D02*
X00185003Y00383340D01*
Y00380008D01*
X00186669Y00378342D01*
X00188335D01*
X00190002Y00380008D01*
Y00381674D01*
Y00380008D01*
X00191668Y00378342D01*
X00193334D01*
X00195000Y00380008D01*
Y00383340D01*
X00193334Y00385006D01*
X00247500Y00559997D02*
Y00550000D01*
X00242502D01*
X00240835Y00551666D01*
Y00558331D01*
X00242502Y00559997D01*
X00247500D01*
X00237503Y00550000D02*
Y00556665D01*
X00234171Y00559997D01*
X00230839Y00556665D01*
Y00550000D01*
Y00554998D01*
X00237503D01*
X00220842Y00550000D02*
X00227506D01*
X00220842Y00556665D01*
Y00558331D01*
X00222508Y00559997D01*
X00225840D01*
X00227506Y00558331D01*
X00870835Y00223331D02*
X00872502Y00224997D01*
X00875834D01*
X00877500Y00223331D01*
Y00216666D01*
X00875834Y00215000D01*
X00872502D01*
X00870835Y00216666D01*
X00860839Y00224997D02*
X00867503D01*
Y00219998D01*
X00864171Y00221665D01*
X00862505D01*
X00860839Y00219998D01*
Y00216666D01*
X00862505Y00215000D01*
X00865837D01*
X00867503Y00216666D01*
X00857506Y00215000D02*
X00854174D01*
X00855840D01*
Y00224997D01*
X00857506Y00223331D01*
X00995835Y00295831D02*
X00997502Y00297497D01*
X01000834D01*
X01002500Y00295831D01*
Y00289166D01*
X01000834Y00287500D01*
X00997502D01*
X00995835Y00289166D01*
X00985839Y00297497D02*
X00992503D01*
Y00292498D01*
X00989171Y00294165D01*
X00987505D01*
X00985839Y00292498D01*
Y00289166D01*
X00987505Y00287500D01*
X00990837D01*
X00992503Y00289166D01*
X00982506Y00295831D02*
X00980840Y00297497D01*
X00977508D01*
X00975842Y00295831D01*
Y00289166D01*
X00977508Y00287500D01*
X00980840D01*
X00982506Y00289166D01*
Y00295831D01*
X01128335Y00380831D02*
X01130002Y00382497D01*
X01133334D01*
X01135000Y00380831D01*
Y00374166D01*
X01133334Y00372500D01*
X01130002D01*
X01128335Y00374166D01*
X01120005Y00372500D02*
Y00382497D01*
X01125003Y00377498D01*
X01118339D01*
X01115006Y00380831D02*
X01113340Y00382497D01*
X01110008D01*
X01108342Y00380831D01*
Y00379165D01*
X01110008Y00377498D01*
X01108342Y00375832D01*
Y00374166D01*
X01110008Y00372500D01*
X01113340D01*
X01115006Y00374166D01*
Y00375832D01*
X01113340Y00377498D01*
X01115006Y00379165D01*
Y00380831D01*
X01113340Y00377498D02*
X01110008D01*
X01018938Y00332127D02*
X01020604Y00333793D01*
X01023936D01*
X01025602Y00332127D01*
Y00325462D01*
X01023936Y00323796D01*
X01020604D01*
X01018938Y00325462D01*
X01010607Y00323796D02*
Y00333793D01*
X01015605Y00328795D01*
X01008941D01*
X01005609Y00333793D02*
X00998944D01*
Y00332127D01*
X01005609Y00325462D01*
Y00323796D01*
X01030835Y00115831D02*
X01032502Y00117497D01*
X01035834D01*
X01037500Y00115831D01*
Y00109166D01*
X01035834Y00107500D01*
X01032502D01*
X01030835Y00109166D01*
X01022505Y00107500D02*
Y00117497D01*
X01027503Y00112498D01*
X01020839D01*
X01010842Y00117497D02*
X01017506D01*
Y00112498D01*
X01014174Y00114164D01*
X01012508D01*
X01010842Y00112498D01*
Y00109166D01*
X01012508Y00107500D01*
X01015840D01*
X01017506Y00109166D01*
X01033335Y00238331D02*
X01035002Y00239997D01*
X01038334D01*
X01040000Y00238331D01*
Y00231666D01*
X01038334Y00230000D01*
X01035002D01*
X01033335Y00231666D01*
X01025005Y00230000D02*
Y00239997D01*
X01030003Y00234998D01*
X01023339D01*
X01015008Y00230000D02*
Y00239997D01*
X01020006Y00234998D01*
X01013342D01*
X00963335Y00390831D02*
X00965002Y00392497D01*
X00968334D01*
X00970000Y00390831D01*
Y00384166D01*
X00968334Y00382500D01*
X00965002D01*
X00963335Y00384166D01*
X00955005Y00382500D02*
Y00392497D01*
X00960003Y00387498D01*
X00953339D01*
X00950006Y00390831D02*
X00948340Y00392497D01*
X00945008D01*
X00943342Y00390831D01*
Y00389165D01*
X00945008Y00387498D01*
X00946674D01*
X00945008D01*
X00943342Y00385832D01*
Y00384166D01*
X00945008Y00382500D01*
X00948340D01*
X00950006Y00384166D01*
X00868335Y00383331D02*
X00870002Y00384997D01*
X00873334D01*
X00875000Y00383331D01*
Y00376666D01*
X00873334Y00375000D01*
X00870002D01*
X00868335Y00376666D01*
X00860005Y00375000D02*
Y00384997D01*
X00865003Y00379998D01*
X00858339D01*
X00848342Y00375000D02*
X00855006D01*
X00848342Y00381665D01*
Y00383331D01*
X00850008Y00384997D01*
X00853340D01*
X00855006Y00383331D01*
X00978335Y00243331D02*
X00980002Y00244997D01*
X00983334D01*
X00985000Y00243331D01*
Y00236666D01*
X00983334Y00235000D01*
X00980002D01*
X00978335Y00236666D01*
X00970005Y00235000D02*
Y00244997D01*
X00975003Y00239998D01*
X00968339D01*
X00965006Y00243331D02*
X00963340Y00244997D01*
X00960008D01*
X00958342Y00243331D01*
Y00236666D01*
X00960008Y00235000D01*
X00963340D01*
X00965006Y00236666D01*
Y00243331D01*
X00995835Y00130831D02*
X00997502Y00132497D01*
X01000834D01*
X01002500Y00130831D01*
Y00124166D01*
X01000834Y00122500D01*
X00997502D01*
X00995835Y00124166D01*
X00992503Y00130831D02*
X00990837Y00132497D01*
X00987505D01*
X00985839Y00130831D01*
Y00129164D01*
X00987505Y00127498D01*
X00989171D01*
X00987505D01*
X00985839Y00125832D01*
Y00124166D01*
X00987505Y00122500D01*
X00990837D01*
X00992503Y00124166D01*
X00982506D02*
X00980840Y00122500D01*
X00977508D01*
X00975842Y00124166D01*
Y00130831D01*
X00977508Y00132497D01*
X00980840D01*
X00982506Y00130831D01*
Y00129164D01*
X00980840Y00127498D01*
X00975842D01*
X00836669Y00498335D02*
X00835003Y00500002D01*
Y00503334D01*
X00836669Y00505000D01*
X00843334D01*
X00845000Y00503334D01*
Y00500002D01*
X00843334Y00498335D01*
X00836669Y00495003D02*
X00835003Y00493337D01*
Y00490005D01*
X00836669Y00488339D01*
X00838335D01*
X00840002Y00490005D01*
Y00491671D01*
Y00490005D01*
X00841668Y00488339D01*
X00843334D01*
X00845000Y00490005D01*
Y00493337D01*
X00843334Y00495003D01*
X00836669Y00485006D02*
X00835003Y00483340D01*
Y00480008D01*
X00836669Y00478342D01*
X00838335D01*
X00840002Y00480008D01*
X00841668Y00478342D01*
X00843334D01*
X00845000Y00480008D01*
Y00483340D01*
X00843334Y00485006D01*
X00841668D01*
X00840002Y00483340D01*
X00838335Y00485006D01*
X00836669D01*
X00840002Y00483340D02*
Y00480008D01*
X00553335Y00198331D02*
X00555002Y00199997D01*
X00558334D01*
X00560000Y00198331D01*
Y00191666D01*
X00558334Y00190000D01*
X00555002D01*
X00553335Y00191666D01*
X00550003Y00198331D02*
X00548337Y00199997D01*
X00545005D01*
X00543339Y00198331D01*
Y00196665D01*
X00545005Y00194998D01*
X00546671D01*
X00545005D01*
X00543339Y00193332D01*
Y00191666D01*
X00545005Y00190000D01*
X00548337D01*
X00550003Y00191666D01*
X00540006Y00199997D02*
X00533342D01*
Y00198331D01*
X00540006Y00191666D01*
Y00190000D01*
X00650835Y00295831D02*
X00652502Y00297497D01*
X00655834D01*
X00657500Y00295831D01*
Y00289166D01*
X00655834Y00287500D01*
X00652502D01*
X00650835Y00289166D01*
X00647503Y00295831D02*
X00645837Y00297497D01*
X00642505D01*
X00640839Y00295831D01*
Y00294165D01*
X00642505Y00292498D01*
X00644171D01*
X00642505D01*
X00640839Y00290832D01*
Y00289166D01*
X00642505Y00287500D01*
X00645837D01*
X00647503Y00289166D01*
X00630842Y00297497D02*
X00634174Y00295831D01*
X00637506Y00292498D01*
Y00289166D01*
X00635840Y00287500D01*
X00632508D01*
X00630842Y00289166D01*
Y00290832D01*
X00632508Y00292498D01*
X00637506D01*
X00805835Y00393331D02*
X00807502Y00394997D01*
X00810834D01*
X00812500Y00393331D01*
Y00386666D01*
X00810834Y00385000D01*
X00807502D01*
X00805835Y00386666D01*
X00802503Y00393331D02*
X00800837Y00394997D01*
X00797505D01*
X00795839Y00393331D01*
Y00391665D01*
X00797505Y00389998D01*
X00799171D01*
X00797505D01*
X00795839Y00388332D01*
Y00386666D01*
X00797505Y00385000D01*
X00800837D01*
X00802503Y00386666D01*
X00785842Y00394997D02*
X00792506D01*
Y00389998D01*
X00789174Y00391665D01*
X00787508D01*
X00785842Y00389998D01*
Y00386666D01*
X00787508Y00385000D01*
X00790840D01*
X00792506Y00386666D01*
X00678335Y00333331D02*
X00680002Y00334997D01*
X00683334D01*
X00685000Y00333331D01*
Y00326666D01*
X00683334Y00325000D01*
X00680002D01*
X00678335Y00326666D01*
X00675003Y00333331D02*
X00673337Y00334997D01*
X00670005D01*
X00668339Y00333331D01*
Y00331665D01*
X00670005Y00329998D01*
X00671671D01*
X00670005D01*
X00668339Y00328332D01*
Y00326666D01*
X00670005Y00325000D01*
X00673337D01*
X00675003Y00326666D01*
X00660008Y00325000D02*
Y00334997D01*
X00665006Y00329998D01*
X00658342D01*
X00768335Y00113331D02*
X00770002Y00114997D01*
X00773334D01*
X00775000Y00113331D01*
Y00106666D01*
X00773334Y00105000D01*
X00770002D01*
X00768335Y00106666D01*
X00765003Y00113331D02*
X00763337Y00114997D01*
X00760005D01*
X00758339Y00113331D01*
Y00111664D01*
X00760005Y00109998D01*
X00761671D01*
X00760005D01*
X00758339Y00108332D01*
Y00106666D01*
X00760005Y00105000D01*
X00763337D01*
X00765003Y00106666D01*
X00755006Y00113331D02*
X00753340Y00114997D01*
X00750008D01*
X00748342Y00113331D01*
Y00111664D01*
X00750008Y00109998D01*
X00751674D01*
X00750008D01*
X00748342Y00108332D01*
Y00106666D01*
X00750008Y00105000D01*
X00753340D01*
X00755006Y00106666D01*
X00706669Y00215835D02*
X00705003Y00217502D01*
Y00220834D01*
X00706669Y00222500D01*
X00713334D01*
X00715000Y00220834D01*
Y00217502D01*
X00713334Y00215835D01*
X00706669Y00212503D02*
X00705003Y00210837D01*
Y00207505D01*
X00706669Y00205839D01*
X00708335D01*
X00710002Y00207505D01*
Y00209171D01*
Y00207505D01*
X00711668Y00205839D01*
X00713334D01*
X00715000Y00207505D01*
Y00210837D01*
X00713334Y00212503D01*
X00715000Y00195842D02*
Y00202507D01*
X00708335Y00195842D01*
X00706669D01*
X00705003Y00197508D01*
Y00200840D01*
X00706669Y00202507D01*
X00634169Y00435835D02*
X00632503Y00437502D01*
Y00440834D01*
X00634169Y00442500D01*
X00640834D01*
X00642500Y00440834D01*
Y00437502D01*
X00640834Y00435835D01*
X00634169Y00432503D02*
X00632503Y00430837D01*
Y00427505D01*
X00634169Y00425839D01*
X00635835D01*
X00637502Y00427505D01*
Y00429171D01*
Y00427505D01*
X00639168Y00425839D01*
X00640834D01*
X00642500Y00427505D01*
Y00430837D01*
X00640834Y00432503D01*
X00634169Y00422506D02*
X00632503Y00420840D01*
Y00417508D01*
X00634169Y00415842D01*
X00640834D01*
X00642500Y00417508D01*
Y00420840D01*
X00640834Y00422506D01*
X00634169D01*
X00501669Y00360835D02*
X00500003Y00362502D01*
Y00365834D01*
X00501669Y00367500D01*
X00508334D01*
X00510000Y00365834D01*
Y00362502D01*
X00508334Y00360835D01*
X00510000Y00350839D02*
Y00357503D01*
X00503335Y00350839D01*
X00501669D01*
X00500003Y00352505D01*
Y00355837D01*
X00501669Y00357503D01*
X00508334Y00347506D02*
X00510000Y00345840D01*
Y00342508D01*
X00508334Y00340842D01*
X00501669D01*
X00500003Y00342508D01*
Y00345840D01*
X00501669Y00347506D01*
X00503335D01*
X00505002Y00345840D01*
Y00340842D01*
X00643335Y00243331D02*
X00645002Y00244997D01*
X00648334D01*
X00650000Y00243331D01*
Y00236666D01*
X00648334Y00235000D01*
X00645002D01*
X00643335Y00236666D01*
X00633339Y00235000D02*
X00640003D01*
X00633339Y00241665D01*
Y00243331D01*
X00635005Y00244997D01*
X00638337D01*
X00640003Y00243331D01*
X00630006D02*
X00628340Y00244997D01*
X00625008D01*
X00623342Y00243331D01*
Y00241665D01*
X00625008Y00239998D01*
X00623342Y00238332D01*
Y00236666D01*
X00625008Y00235000D01*
X00628340D01*
X00630006Y00236666D01*
Y00238332D01*
X00628340Y00239998D01*
X00630006Y00241665D01*
Y00243331D01*
X00628340Y00239998D02*
X00625008D01*
X00658335Y00128331D02*
X00660002Y00129997D01*
X00663334D01*
X00665000Y00128331D01*
Y00121666D01*
X00663334Y00120000D01*
X00660002D01*
X00658335Y00121666D01*
X00648339Y00120000D02*
X00655003D01*
X00648339Y00126664D01*
Y00128331D01*
X00650005Y00129997D01*
X00653337D01*
X00655003Y00128331D01*
X00645006Y00129997D02*
X00638342D01*
Y00128331D01*
X00645006Y00121666D01*
Y00120000D01*
X00529529Y00522681D02*
X00531196Y00524347D01*
X00534528D01*
X00536194Y00522681D01*
Y00516016D01*
X00534528Y00514350D01*
X00531196D01*
X00529529Y00516016D01*
X00519533Y00514350D02*
X00526197D01*
X00519533Y00521015D01*
Y00522681D01*
X00521199Y00524347D01*
X00524531D01*
X00526197Y00522681D01*
X00509536Y00524347D02*
X00512868Y00522681D01*
X00516200Y00519348D01*
Y00516016D01*
X00514534Y00514350D01*
X00511202D01*
X00509536Y00516016D01*
Y00517682D01*
X00511202Y00519348D01*
X00516200D01*
X00448335Y00378331D02*
X00450002Y00379997D01*
X00453334D01*
X00455000Y00378331D01*
Y00371666D01*
X00453334Y00370000D01*
X00450002D01*
X00448335Y00371666D01*
X00438339Y00370000D02*
X00445003D01*
X00438339Y00376665D01*
Y00378331D01*
X00440005Y00379997D01*
X00443337D01*
X00445003Y00378331D01*
X00428342Y00379997D02*
X00435006D01*
Y00374998D01*
X00431674Y00376665D01*
X00430008D01*
X00428342Y00374998D01*
Y00371666D01*
X00430008Y00370000D01*
X00433340D01*
X00435006Y00371666D01*
X00338335Y00333331D02*
X00340002Y00334997D01*
X00343334D01*
X00345000Y00333331D01*
Y00326666D01*
X00343334Y00325000D01*
X00340002D01*
X00338335Y00326666D01*
X00328339Y00325000D02*
X00335003D01*
X00328339Y00331665D01*
Y00333331D01*
X00330005Y00334997D01*
X00333337D01*
X00335003Y00333331D01*
X00320008Y00325000D02*
Y00334997D01*
X00325006Y00329998D01*
X00318342D01*
X00188335Y00228331D02*
X00190002Y00229997D01*
X00193334D01*
X00195000Y00228331D01*
Y00221666D01*
X00193334Y00220000D01*
X00190002D01*
X00188335Y00221666D01*
X00178339Y00220000D02*
X00185003D01*
X00178339Y00226665D01*
Y00228331D01*
X00180005Y00229997D01*
X00183337D01*
X00185003Y00228331D01*
X00175006D02*
X00173340Y00229997D01*
X00170008D01*
X00168342Y00228331D01*
Y00226665D01*
X00170008Y00224998D01*
X00171674D01*
X00170008D01*
X00168342Y00223332D01*
Y00221666D01*
X00170008Y00220000D01*
X00173340D01*
X00175006Y00221666D01*
X00313335Y00298331D02*
X00315002Y00299997D01*
X00318334D01*
X00320000Y00298331D01*
Y00291666D01*
X00318334Y00290000D01*
X00315002D01*
X00313335Y00291666D01*
X00303339Y00290000D02*
X00310003D01*
X00303339Y00296665D01*
Y00298331D01*
X00305005Y00299997D01*
X00308337D01*
X00310003Y00298331D01*
X00293342Y00290000D02*
X00300006D01*
X00293342Y00296665D01*
Y00298331D01*
X00295008Y00299997D01*
X00298340D01*
X00300006Y00298331D01*
X00348335Y00113331D02*
X00350002Y00114997D01*
X00353334D01*
X00355000Y00113331D01*
Y00106666D01*
X00353334Y00105000D01*
X00350002D01*
X00348335Y00106666D01*
X00338339Y00105000D02*
X00345003D01*
X00338339Y00111664D01*
Y00113331D01*
X00340005Y00114997D01*
X00343337D01*
X00345003Y00113331D01*
X00335006D02*
X00333340Y00114997D01*
X00330008D01*
X00328342Y00113331D01*
Y00106666D01*
X00330008Y00105000D01*
X00333340D01*
X00335006Y00106666D01*
Y00113331D01*
X00353335Y00238331D02*
X00355002Y00239997D01*
X00358334D01*
X00360000Y00238331D01*
Y00231666D01*
X00358334Y00230000D01*
X00355002D01*
X00353335Y00231666D01*
X00350003Y00230000D02*
X00346671D01*
X00348337D01*
Y00239997D01*
X00350003Y00238331D01*
X00341673Y00231666D02*
X00340006Y00230000D01*
X00336674D01*
X00335008Y00231666D01*
Y00238331D01*
X00336674Y00239997D01*
X00340006D01*
X00341673Y00238331D01*
Y00236665D01*
X00340006Y00234998D01*
X00335008D01*
X00298335Y00243331D02*
X00300002Y00244997D01*
X00303334D01*
X00305000Y00243331D01*
Y00236666D01*
X00303334Y00235000D01*
X00300002D01*
X00298335Y00236666D01*
X00295003Y00235000D02*
X00291671D01*
X00293337D01*
Y00244997D01*
X00295003Y00243331D01*
X00286673Y00244997D02*
X00280008D01*
Y00243331D01*
X00286673Y00236666D01*
Y00235000D01*
X00278335Y00393331D02*
X00280002Y00394997D01*
X00283334D01*
X00285000Y00393331D01*
Y00386666D01*
X00283334Y00385000D01*
X00280002D01*
X00278335Y00386666D01*
X00275003Y00385000D02*
X00271671D01*
X00273337D01*
Y00394997D01*
X00275003Y00393331D01*
X00260008Y00394997D02*
X00263340Y00393331D01*
X00266673Y00389998D01*
Y00386666D01*
X00265006Y00385000D01*
X00261674D01*
X00260008Y00386666D01*
Y00388332D01*
X00261674Y00389998D01*
X00266673D01*
X00161669Y00358335D02*
X00160003Y00360002D01*
Y00363334D01*
X00161669Y00365000D01*
X00168334D01*
X00170000Y00363334D01*
Y00360002D01*
X00168334Y00358335D01*
X00170000Y00355003D02*
Y00351671D01*
Y00353337D01*
X00160003D01*
X00161669Y00355003D01*
X00160003Y00340008D02*
Y00346673D01*
X00165002D01*
X00163335Y00343340D01*
Y00341674D01*
X00165002Y00340008D01*
X00168334D01*
X00170000Y00341674D01*
Y00345006D01*
X00168334Y00346673D01*
X00313335Y00133331D02*
X00315002Y00134997D01*
X00318334D01*
X00320000Y00133331D01*
Y00126666D01*
X00318334Y00125000D01*
X00315002D01*
X00313335Y00126666D01*
X00310003Y00125000D02*
X00306671D01*
X00308337D01*
Y00134997D01*
X00310003Y00133331D01*
X00296674Y00125000D02*
Y00134997D01*
X00301673Y00129998D01*
X00295008D01*
X00163335Y00500831D02*
X00165002Y00502497D01*
X00168334D01*
X00170000Y00500831D01*
Y00494166D01*
X00168334Y00492500D01*
X00165002D01*
X00163335Y00494166D01*
X00160003Y00492500D02*
X00156671D01*
X00158337D01*
Y00502497D01*
X00160003Y00500831D01*
X00151673D02*
X00150006Y00502497D01*
X00146674D01*
X00145008Y00500831D01*
Y00499165D01*
X00146674Y00497498D01*
X00148340D01*
X00146674D01*
X00145008Y00495832D01*
Y00494166D01*
X00146674Y00492500D01*
X00150006D01*
X00151673Y00494166D01*
D25*
X00201980Y00497622D02*
G03*
X00201980Y00512862I00000000J00007620D01*
G01*
Y00377622D02*
G03*
X00201980Y00392862I00000000J00007620D01*
G01*
X00359520Y00183422D02*
G03*
X00374760Y00183422I00007620J00000000D01*
G01*
X00352782Y00323918D02*
G03*
X00352782Y00339158I00000000J00007620D01*
G01*
X00233270Y00307722D02*
G03*
X00248510Y00307722I00007620J00000000D01*
G01*
X00545082Y00494613D02*
G03*
X00545082Y00509852I00000000J00007620D01*
G01*
Y00374613D02*
G03*
X00545082Y00389852I00000000J00007620D01*
G01*
X00702020Y00183422D02*
G03*
X00717260Y00183422I00007620J00000000D01*
G01*
X00695282Y00324118D02*
G03*
X00695282Y00339358I00000000J00007620D01*
G01*
X00576372Y00304713D02*
G03*
X00591612Y00304713I00007620J00000000D01*
G01*
X00880630Y00496418D02*
G03*
X00880630Y00511658I00000000J00007620D01*
G01*
X01039520Y00184224D02*
G03*
X01054760Y00184224I00007620J00000000D01*
G01*
X00880630Y00376418D02*
G03*
X00880630Y00391658I00000000J00007620D01*
G01*
X01032782Y00324720D02*
G03*
X01032782Y00339960I00000000J00007620D01*
G01*
X00911920Y00306518D02*
G03*
X00927160Y00306518I00007620J00000000D01*
G01*
X00253650Y00468412D02*
Y00543342D01*
X00201980D02*
X00253650D01*
X00201980Y00515402D02*
Y00543342D01*
Y00468412D02*
X00253650D01*
X00201980D02*
Y00495082D01*
Y00512862D02*
Y00515402D01*
Y00495082D02*
Y00497622D01*
Y00375082D02*
Y00377622D01*
Y00392862D02*
Y00395402D01*
Y00348412D02*
Y00375082D01*
Y00348412D02*
X00253650D01*
X00201980Y00395402D02*
Y00423342D01*
X00253650D01*
Y00348412D02*
Y00423342D01*
X00330310Y00131752D02*
X00405240D01*
Y00183422D01*
X00377300D02*
X00405240D01*
X00330310Y00131752D02*
Y00183422D01*
X00356980D01*
X00374760D02*
X00377300D01*
X00356980D02*
X00359520D01*
X00352782Y00321378D02*
Y00323918D01*
Y00339158D02*
Y00341698D01*
Y00294708D02*
Y00321378D01*
Y00294708D02*
X00404452D01*
X00352782Y00341698D02*
Y00369638D01*
X00404452D01*
Y00294708D02*
Y00369638D01*
X00204060Y00256052D02*
X00278990D01*
Y00307722D01*
X00251050D02*
X00278990D01*
X00204060Y00256052D02*
Y00307722D01*
X00230730D01*
X00248510D02*
X00251050D01*
X00230730D02*
X00233270D01*
X00545082Y00492072D02*
Y00494613D01*
Y00509852D02*
Y00512393D01*
Y00465402D02*
Y00492072D01*
Y00465402D02*
X00596752D01*
X00545082Y00512393D02*
Y00540332D01*
X00596752D01*
Y00465402D02*
Y00540332D01*
Y00345402D02*
Y00420332D01*
X00545082D02*
X00596752D01*
X00545082Y00392393D02*
Y00420332D01*
Y00345402D02*
X00596752D01*
X00545082D02*
Y00372072D01*
Y00389852D02*
Y00392393D01*
Y00372072D02*
Y00374613D01*
X00699480Y00183422D02*
X00702020D01*
X00717260D02*
X00719800D01*
X00672810D02*
X00699480D01*
X00672810Y00131752D02*
Y00183422D01*
X00719800D02*
X00747740D01*
Y00131752D02*
Y00183422D01*
X00672810Y00131752D02*
X00747740D01*
X00746952Y00294908D02*
Y00369838D01*
X00695282D02*
X00746952D01*
X00695282Y00341898D02*
Y00369838D01*
Y00294908D02*
X00746952D01*
X00695282D02*
Y00321578D01*
Y00339358D02*
Y00341898D01*
Y00321578D02*
Y00324118D01*
X00573832Y00304713D02*
X00576372D01*
X00591612D02*
X00594152D01*
X00547162D02*
X00573832D01*
X00547162Y00253043D02*
Y00304713D01*
X00594152D02*
X00622092D01*
Y00253043D02*
Y00304713D01*
X00547162Y00253043D02*
X00622092D01*
X00932300Y00467208D02*
Y00542138D01*
X00880630D02*
X00932300D01*
X00880630Y00514198D02*
Y00542138D01*
Y00467208D02*
X00932300D01*
X00880630D02*
Y00493878D01*
Y00511658D02*
Y00514198D01*
Y00493878D02*
Y00496418D01*
X01036980Y00184224D02*
X01039520D01*
X01054760D02*
X01057300D01*
X01010310D02*
X01036980D01*
X01010310Y00132554D02*
Y00184224D01*
X01057300D02*
X01085240D01*
Y00132554D02*
Y00184224D01*
X01010310Y00132554D02*
X01085240D01*
X00932300Y00347208D02*
Y00422138D01*
X00880630D02*
X00932300D01*
X00880630Y00394198D02*
Y00422138D01*
Y00347208D02*
X00932300D01*
X00880630D02*
Y00373878D01*
Y00391658D02*
Y00394198D01*
Y00373878D02*
Y00376418D01*
X01032782Y00322180D02*
Y00324720D01*
Y00339960D02*
Y00342500D01*
Y00295510D02*
Y00322180D01*
Y00295510D02*
X01084452D01*
X01032782Y00342500D02*
Y00370440D01*
X01084452D01*
Y00295510D02*
Y00370440D01*
X00909380Y00306518D02*
X00911920D01*
X00927160D02*
X00929700D01*
X00882710D02*
X00909380D01*
X00882710Y00254848D02*
Y00306518D01*
X00929700D02*
X00957640D01*
Y00254848D02*
Y00306518D01*
X00882710Y00254848D02*
X00957640D01*
X00174840Y00475736D02*
X00195160D01*
Y00509264D01*
X00174840D02*
X00195160D01*
X00174840Y00475736D02*
Y00509264D01*
X00297340Y00141338D02*
Y00174866D01*
X00317660D01*
Y00141338D02*
Y00174866D01*
X00297340Y00141338D02*
X00317660D01*
X00174840Y00336338D02*
X00195160D01*
Y00369866D01*
X00174840D02*
X00195160D01*
X00174840Y00336338D02*
Y00369866D01*
X00282460Y00400736D02*
Y00434264D01*
X00262140Y00400736D02*
X00282460D01*
X00262140D02*
Y00434264D01*
X00282460D01*
X00309264Y00210442D02*
Y00230762D01*
X00275736D02*
X00309264D01*
X00275736Y00210442D02*
Y00230762D01*
Y00210442D02*
X00309264D01*
X00334840Y00224666D02*
X00355160D01*
X00334840Y00191138D02*
Y00224666D01*
Y00191138D02*
X00355160D01*
Y00224666D01*
X00363838Y00122660D02*
X00397366D01*
Y00102340D02*
Y00122660D01*
X00363838Y00102340D02*
X00397366D01*
X00363838D02*
Y00122660D01*
X00306160Y00251338D02*
Y00284866D01*
X00285840Y00251338D02*
X00306160D01*
X00285840D02*
Y00284866D01*
X00306160D01*
X00174840Y00235338D02*
X00195160D01*
Y00268866D01*
X00174840D02*
X00195160D01*
X00174840Y00235338D02*
Y00268866D01*
X00327540Y00283236D02*
Y00316764D01*
X00347860D01*
Y00283236D02*
Y00316764D01*
X00327540Y00283236D02*
X00347860D01*
X00447366Y00344238D02*
Y00364558D01*
X00413838D02*
X00447366D01*
X00413838Y00344238D02*
Y00364558D01*
Y00344238D02*
X00447366D01*
X00517942Y00472727D02*
Y00506255D01*
X00538262D01*
Y00472727D02*
Y00506255D01*
X00517942Y00472727D02*
X00538262D01*
X00639840Y00140736D02*
X00660160D01*
Y00174264D01*
X00639840D02*
X00660160D01*
X00639840Y00140736D02*
Y00174264D01*
X00618236Y00209238D02*
X00651764D01*
X00618236D02*
Y00229558D01*
X00651764D01*
Y00209238D02*
Y00229558D01*
X00517942Y00333931D02*
X00538262D01*
Y00367458D01*
X00517942D02*
X00538262D01*
X00517942Y00333931D02*
Y00367458D01*
X00625562Y00397727D02*
Y00431255D01*
X00605242Y00397727D02*
X00625562D01*
X00605242D02*
Y00431255D01*
X00625562D01*
X00697660Y00191138D02*
Y00224666D01*
X00677340Y00191138D02*
X00697660D01*
X00677340D02*
Y00224666D01*
X00697660D01*
X00706338Y00102340D02*
Y00122660D01*
Y00102340D02*
X00739866D01*
Y00122660D01*
X00706338D02*
X00739866D01*
X00664840Y00284532D02*
Y00318060D01*
X00685160D01*
Y00284532D02*
Y00318060D01*
X00664840Y00284532D02*
X00685160D01*
X00789866Y00345040D02*
Y00365360D01*
X00756338D02*
X00789866D01*
X00756338Y00345040D02*
Y00365360D01*
Y00345040D02*
X00789866D01*
X00649262Y00248328D02*
Y00281856D01*
X00628942Y00248328D02*
X00649262D01*
X00628942D02*
Y00281856D01*
X00649262D01*
X00518244Y00232831D02*
X00538564D01*
Y00266359D01*
X00518244D02*
X00538564D01*
X00518244Y00232831D02*
Y00266359D01*
X00853490Y00474532D02*
Y00508060D01*
X00873810D01*
Y00474532D02*
Y00508060D01*
X00853490Y00474532D02*
X00873810D01*
X00977340Y00141338D02*
X00997660D01*
Y00174866D01*
X00977340D02*
X00997660D01*
X00977340Y00141338D02*
Y00174866D01*
X00955736Y00210040D02*
X00989264D01*
X00955736D02*
Y00230360D01*
X00989264D01*
Y00210040D02*
Y00230360D01*
X00853490Y00335736D02*
Y00369264D01*
X00873810D01*
Y00335736D02*
Y00369264D01*
X00853490Y00335736D02*
X00873810D01*
X00940790Y00433060D02*
X00961110D01*
X00940790Y00399532D02*
Y00433060D01*
Y00399532D02*
X00961110D01*
Y00433060D01*
X01035160Y00191940D02*
Y00225468D01*
X01014840Y00191940D02*
X01035160D01*
X01014840D02*
Y00225468D01*
X01035160D01*
X01043838Y00103142D02*
Y00123462D01*
Y00103142D02*
X01077366D01*
Y00123462D01*
X01043838D02*
X01077366D01*
X01007540Y00284640D02*
X01027860D01*
Y00318168D01*
X01007540D02*
X01027860D01*
X01007540Y00284640D02*
Y00318168D01*
X01093838Y00345642D02*
X01127366D01*
X01093838D02*
Y00365962D01*
X01127366D01*
Y00345642D02*
Y00365962D01*
X00984810Y00250134D02*
Y00283662D01*
X00964490Y00250134D02*
X00984810D01*
X00964490D02*
Y00283662D01*
X00984810D01*
X00853792Y00234636D02*
X00874112D01*
Y00268164D01*
X00853792D02*
X00874112D01*
X00853792Y00234636D02*
Y00268164D01*
X00211236Y00317942D02*
X00244764D01*
X00211236D02*
Y00338262D01*
X00244764D01*
Y00317942D02*
Y00338262D01*
X00196236Y00435942D02*
Y00456262D01*
Y00435942D02*
X00229764D01*
Y00456262D01*
X00196236D02*
X00229764D01*
X00260736Y00317942D02*
X00294264D01*
X00260736D02*
Y00338262D01*
X00294264D01*
Y00317942D02*
Y00338262D01*
X00417340Y00153838D02*
X00437660D01*
Y00187366D01*
X00417340D02*
X00437660D01*
X00417340Y00153838D02*
Y00187366D01*
X00275736Y00203262D02*
X00309264D01*
Y00182942D02*
Y00203262D01*
X00275736Y00182942D02*
X00309264D01*
X00275736D02*
Y00203262D01*
X00417942Y00281764D02*
X00438262D01*
X00417942Y00248236D02*
Y00281764D01*
Y00248236D02*
X00438262D01*
Y00281764D01*
X00475762Y00325134D02*
Y00358662D01*
X00455442Y00325134D02*
X00475762D01*
X00455442D02*
Y00358662D01*
X00475762D01*
X00444840Y00187366D02*
X00465160D01*
X00444840Y00153838D02*
Y00187366D01*
Y00153838D02*
X00465160D01*
Y00187366D01*
X00233236Y00230762D02*
X00266764D01*
Y00210442D02*
Y00230762D01*
X00233236Y00210442D02*
X00266764D01*
X00233236D02*
Y00230762D01*
X00267340Y00174866D02*
X00287660D01*
X00267340Y00141338D02*
Y00174866D01*
Y00141338D02*
X00287660D01*
Y00174866D01*
X00413838Y00319238D02*
X00447366D01*
X00413838D02*
Y00339558D01*
X00447366D01*
Y00319238D02*
Y00339558D01*
X00399840Y00398236D02*
Y00431764D01*
X00420160D01*
Y00398236D02*
Y00431764D01*
X00399840Y00398236D02*
X00420160D01*
X00372340Y00264238D02*
Y00284558D01*
Y00264238D02*
X00405868D01*
Y00284558D01*
X00372340D02*
X00405868D01*
X00364840Y00415134D02*
Y00448662D01*
X00385160D01*
Y00415134D02*
Y00448662D01*
X00364840Y00415134D02*
X00385160D01*
X00348838Y00384238D02*
Y00404558D01*
Y00384238D02*
X00382366D01*
Y00404558D01*
X00348838D02*
X00382366D01*
X00147660Y00248838D02*
Y00282366D01*
X00127340Y00248838D02*
X00147660D01*
X00127340D02*
Y00282366D01*
X00147660D01*
X00587866Y00314932D02*
Y00335252D01*
X00554338D02*
X00587866D01*
X00554338Y00314932D02*
Y00335252D01*
Y00314932D02*
X00587866D01*
X00539338Y00453252D02*
X00572866D01*
Y00432933D02*
Y00453252D01*
X00539338Y00432933D02*
X00572866D01*
X00539338D02*
Y00453252D01*
X00759840Y00154038D02*
X00780160D01*
Y00187566D01*
X00759840D02*
X00780160D01*
X00759840Y00154038D02*
Y00187566D01*
X00618236Y00202058D02*
X00651764D01*
Y00181738D02*
Y00202058D01*
X00618236Y00181738D02*
X00651764D01*
X00618236D02*
Y00202058D01*
X00636866Y00314932D02*
Y00335252D01*
X00603338D02*
X00636866D01*
X00603338Y00314932D02*
Y00335252D01*
Y00314932D02*
X00636866D01*
X00780762Y00249038D02*
Y00282566D01*
X00760442Y00249038D02*
X00780762D01*
X00760442D02*
Y00282566D01*
X00780762D01*
X00797942Y00359464D02*
X00818262D01*
X00797942Y00325936D02*
Y00359464D01*
Y00325936D02*
X00818262D01*
Y00359464D01*
X00807660Y00154038D02*
Y00187566D01*
X00787340Y00154038D02*
X00807660D01*
X00787340D02*
Y00187566D01*
X00807660D01*
X00575736Y00208636D02*
Y00228956D01*
Y00208636D02*
X00609264D01*
Y00228956D01*
X00575736D02*
X00609264D01*
X00630160Y00140736D02*
Y00174264D01*
X00609840Y00140736D02*
X00630160D01*
X00609840D02*
Y00174264D01*
X00630160D01*
X00789866Y00319438D02*
Y00339758D01*
X00756338D02*
X00789866D01*
X00756338Y00319438D02*
Y00339758D01*
Y00319438D02*
X00789866D01*
X00757942Y00397834D02*
X00778262D01*
Y00431362D01*
X00757942D02*
X00778262D01*
X00757942Y00397834D02*
Y00431362D01*
X00714840Y00285360D02*
X00748368D01*
Y00265040D02*
Y00285360D01*
X00714840Y00265040D02*
X00748368D01*
X00714840D02*
Y00285360D01*
X00707942Y00412125D02*
X00728262D01*
Y00445653D01*
X00707942D02*
X00728262D01*
X00707942Y00412125D02*
Y00445653D01*
X00691338Y00404156D02*
X00724866D01*
Y00383836D02*
Y00404156D01*
X00691338Y00383836D02*
X00724866D01*
X00691338D02*
Y00404156D01*
X00470442Y00278060D02*
X00490762D01*
X00470442Y00244532D02*
Y00278060D01*
Y00244532D02*
X00490762D01*
Y00278060D01*
X00891284Y00316738D02*
X00924812D01*
X00891284D02*
Y00337058D01*
X00924812D01*
Y00316738D02*
Y00337058D01*
X01097340Y00154840D02*
X01117660D01*
Y00188368D01*
X01097340D02*
X01117660D01*
X01097340Y00154840D02*
Y00188368D01*
X00874886Y00455058D02*
X00908414D01*
Y00434738D02*
Y00455058D01*
X00874886Y00434738D02*
X00908414D01*
X00874886D02*
Y00455058D01*
X00955736Y00183142D02*
Y00203462D01*
Y00183142D02*
X00989264D01*
Y00203462D01*
X00955736D02*
X00989264D01*
X01118262Y00249640D02*
Y00283168D01*
X01097942Y00249640D02*
X01118262D01*
X01097942D02*
Y00283168D01*
X01118262D01*
X01135442Y00360066D02*
X01155762D01*
X01135442Y00326538D02*
Y00360066D01*
Y00326538D02*
X01155762D01*
Y00360066D01*
X00938886Y00317238D02*
X00972414D01*
X00938886D02*
Y00337558D01*
X00972414D01*
Y00317238D02*
Y00337558D01*
X01124840Y00188368D02*
X01145160D01*
X01124840Y00154840D02*
Y00188368D01*
Y00154840D02*
X01145160D01*
Y00188368D01*
X00911284Y00230160D02*
X00944812D01*
Y00209840D02*
Y00230160D01*
X00911284Y00209840D02*
X00944812D01*
X00911284D02*
Y00230160D01*
X00947340Y00175668D02*
X00967660D01*
X00947340Y00142140D02*
Y00175668D01*
Y00142140D02*
X00967660D01*
Y00175668D01*
X01093838Y00320040D02*
X01127366D01*
X01093838D02*
Y00340360D01*
X01127366D01*
Y00320040D02*
Y00340360D01*
X01095442Y00397834D02*
Y00431362D01*
X01115762D01*
Y00397834D02*
Y00431362D01*
X01095442Y00397834D02*
X01115762D01*
X01052340Y00265642D02*
Y00285962D01*
Y00265642D02*
X01085868D01*
Y00285962D01*
X01052340D02*
X01085868D01*
X01044840Y00410134D02*
Y00443662D01*
X01065160D01*
Y00410134D02*
Y00443662D01*
X01044840Y00410134D02*
X01065160D01*
X01028838Y00384438D02*
Y00404758D01*
Y00384438D02*
X01062366D01*
Y00404758D01*
X01028838D02*
X01062366D01*
X00826310Y00247336D02*
Y00280864D01*
X00805990Y00247336D02*
X00826310D01*
X00805990D02*
Y00280864D01*
X00826310D01*
X00174840Y00280338D02*
Y00313866D01*
X00195160D01*
Y00280338D02*
Y00313866D01*
X00174840Y00280338D02*
X00195160D01*
X00518244Y00277027D02*
X00538564D01*
Y00310555D01*
X00518244D02*
X00538564D01*
X00518244Y00277027D02*
Y00310555D01*
X00853792Y00278832D02*
Y00312360D01*
X00874112D01*
Y00278832D02*
Y00312360D01*
X00853792Y00278832D02*
X00874112D01*
D26*
X00786900Y00887300D02*
X00863100D01*
X00786900Y00912700D02*
X00863100D01*
X00786900Y00887300D02*
Y00900000D01*
Y00912700D01*
X00812300Y00900000D02*
Y00912700D01*
Y00887300D02*
Y00900000D01*
X00837700Y00887300D02*
Y00900000D01*
Y00912700D01*
X00863100Y00887300D02*
Y00900000D01*
Y00912700D01*
X01150000Y00511900D02*
X01162700D01*
X01137300D02*
X01150000D01*
X01137300Y00613500D02*
X01150000D01*
X01162700D01*
X01137300Y00511900D02*
Y00613500D01*
X01162700Y00511900D02*
Y00613500D01*
X01137300Y00537300D02*
X01150000D01*
X01162700D01*
X01150000Y00562700D02*
X01162700D01*
X01137300D02*
X01150000D01*
Y00588100D02*
X01162700D01*
X01137300D02*
X01150000D01*
X00554000Y00087300D02*
Y00100000D01*
Y00112700D01*
X00655600Y00100000D02*
Y00112700D01*
Y00087300D02*
Y00100000D01*
X00554000Y00112700D02*
X00655600D01*
X00554000Y00087300D02*
X00655600D01*
X00579400Y00100000D02*
Y00112700D01*
Y00087300D02*
Y00100000D01*
X00604800Y00087300D02*
Y00100000D01*
Y00112700D01*
X00630200Y00087300D02*
Y00100000D01*
Y00112700D01*
M02*
