M48
;Layer_Color=9474304
;FILE_FORMAT=4:4
METRIC
;TYPE=PLATED
T1F00S00C0.6000
T2F00S00C0.9000
%
T01
X00137500Y00227500
X00162500Y00255000
X00155000Y00300000
X00310000Y00310000
X00318796Y00258704
X00345000Y00252500
X00322500Y00200000
X00272300Y00362500
X00415000Y00377500
X00465000Y00370000
X00502500Y00287500
X00505000Y00252500
X00480602Y00223194
X00427500Y00232500
Y00197500
X00415000Y00112500
X00665602Y00200694
X00661898Y00256898
X00688102Y00262500
X00651296Y00312500
X00615402Y00363194
X00755000Y00378796
X00777500Y00232500
X00782500Y00200000
X00765000Y00135000
X00816150Y00225998
X00842500Y00255000
X00838048Y00289306
X00807500Y00372500
X00948850Y00361898
X00988650Y00310000
X00997446Y00256204
X01025602Y00260000
X01006150Y00200000
X01120000
Y00232500
X01095000Y00113302
X01095602Y00376496
X01145602Y00373796
X01080000Y00440000
X01087500Y00537500
X00992500Y00512500
X00948850Y00542500
Y00441150
X00992500Y00406496
X00863650Y00417500
X00841150Y00440798
X00822500Y00467500
X00808102Y00634398
X00895302Y00658698
X00925000Y00660000
X00947500Y00700000
X01047500
X01010000Y00595000
X00750000Y00567500
X00698704Y00565000
X00645000Y00587500
X00644000Y00659000
X00700000Y00650000
X00732500Y00700000
X00570000Y00642500
X00522500Y00655000
X00615402Y00542500
X00640000Y00512500
X00662500Y00492500
X00615402Y00441991
X00640000Y00405000
X00527500Y00415000
X00505602Y00441991
X00480000Y00475000
X00445000
Y00442500
X00397500Y00445000
X00425000Y00530000
X00750000Y00457500
X00743102Y00438194
X00785000Y00467500
X00352500Y00512500
X00350000Y00550000
X00387500Y00562500
X00348604Y00638896
X00365000Y00765000
X00272300Y00445000
X00297500Y00407500
X00185000Y00415000
X00162500Y00445000
T02
X00207500Y00177500
X00545000Y00170000
X00566700Y00100000
X00592100
X00617500
X00642900
X00907500Y00167500
X00795000Y00575000
X00967500Y00725000
X01145000Y00722500
Y00747900
X01150000Y00600800
Y00575400
Y00550000
Y00524600
X00792500Y00702500
X00694800Y00720000
X00669400
X00644000
X00618600
X00593200
X00567800
X00542400
X00517000
X00491600
X00466200
X00440800
X00415400
X00570000Y00585000
X00670000Y00635000
X00390000Y00720000
X00364600
X00339200
X00313800
X00288400
X00263000
X00237600
X00212200
X00125000Y00687900
Y00662500
Y00637100
Y00611700
X00222500Y00585000
X00287500Y00615000
X00285000Y00662500
X00288400Y00872400
X00313800
X00339200
X00364600
X00390000
X00263000
X00237600
X00212200
X00415400
X00440800
X00466200
X00491600
X00517000
X00542400
X00567800
X00593200
X00618600
X00644000
X00669400
X00694800
X00799600Y00900000
X00825000
X00850400
X00830000Y00810000
M30
