G04 Layer_Color=65535*
%FSAX44Y44*%
%MOMM*%
G71*
G01*
G75*
%ADD24C,0.2500*%
%ADD25C,0.2000*%
%ADD26C,0.2540*%
D24*
X00208750Y00198000D02*
G03*
X00208750Y00198000I-00001250J00000000D01*
G01*
X00223750Y00605500D02*
G03*
X00223750Y00605500I-00001250J00000000D01*
G01*
X00671250Y00655500D02*
G03*
X00671250Y00655500I-00001250J00000000D01*
G01*
X00793750Y00723000D02*
G03*
X00793750Y00723000I-00001250J00000000D01*
G01*
X00288750Y00635500D02*
G03*
X00288750Y00635500I-00001250J00000000D01*
G01*
X00968750Y00745500D02*
G03*
X00968750Y00745500I-00001250J00000000D01*
G01*
X00796250Y00595500D02*
G03*
X00796250Y00595500I-00001250J00000000D01*
G01*
X00831250Y00830500D02*
G03*
X00831250Y00830500I-00001250J00000000D01*
G01*
X00571250Y00605500D02*
G03*
X00571250Y00605500I-00001250J00000000D01*
G01*
X00306750Y00662500D02*
G03*
X00306750Y00662500I-00001250J00000000D01*
G01*
X00546250Y00190500D02*
G03*
X00546250Y00190500I-00001250J00000000D01*
G01*
X00908750Y00188000D02*
G03*
X00908750Y00188000I-00001250J00000000D01*
G01*
X00155000Y00790000D02*
Y00796665D01*
X00158332Y00799997D01*
X00161665Y00796665D01*
Y00790000D01*
Y00794998D01*
X00155000D01*
X00164997Y00790000D02*
X00168329D01*
X00166663D01*
Y00799997D01*
X00164997Y00798331D01*
X00425000Y00636997D02*
Y00627000D01*
X00429998D01*
X00431665Y00628666D01*
Y00635331D01*
X00429998Y00636997D01*
X00425000D01*
X00434997Y00627000D02*
Y00633665D01*
X00438329Y00636997D01*
X00441661Y00633665D01*
Y00627000D01*
Y00631998D01*
X00434997D01*
X00451658Y00636997D02*
X00448326Y00635331D01*
X00444994Y00631998D01*
Y00628666D01*
X00446660Y00627000D01*
X00449992D01*
X00451658Y00628666D01*
Y00630332D01*
X00449992Y00631998D01*
X00444994D01*
X00113538Y00719419D02*
X00120203Y00709422D01*
Y00719419D02*
X00113538Y00709422D01*
X00123535D02*
Y00719419D01*
X00128533D01*
X00130199Y00717753D01*
Y00714420D01*
X00128533Y00712754D01*
X00123535D01*
X00140196Y00719419D02*
X00133532D01*
Y00714420D01*
X00136864Y00716087D01*
X00138530D01*
X00140196Y00714420D01*
Y00711088D01*
X00138530Y00709422D01*
X00135198D01*
X00133532Y00711088D01*
X00845000Y00695000D02*
Y00704997D01*
X00849998D01*
X00851665Y00703331D01*
Y00699998D01*
X00849998Y00698332D01*
X00845000D01*
X00848332D02*
X00851665Y00695000D01*
X00861661Y00704997D02*
X00858329Y00703331D01*
X00854997Y00699998D01*
Y00696666D01*
X00856663Y00695000D01*
X00859995D01*
X00861661Y00696666D01*
Y00698332D01*
X00859995Y00699998D01*
X00854997D01*
X00864994Y00703331D02*
X00866660Y00704997D01*
X00869992D01*
X00871658Y00703331D01*
Y00696666D01*
X00869992Y00695000D01*
X00866660D01*
X00864994Y00696666D01*
Y00703331D01*
X00825000Y00580000D02*
Y00589997D01*
X00829998D01*
X00831665Y00588331D01*
Y00584998D01*
X00829998Y00583332D01*
X00825000D01*
X00828332D02*
X00831665Y00580000D01*
X00841661Y00589997D02*
X00834997D01*
Y00584998D01*
X00838329Y00586665D01*
X00839995D01*
X00841661Y00584998D01*
Y00581666D01*
X00839995Y00580000D01*
X00836663D01*
X00834997Y00581666D01*
X00844994D02*
X00846660Y00580000D01*
X00849992D01*
X00851658Y00581666D01*
Y00588331D01*
X00849992Y00589997D01*
X00846660D01*
X00844994Y00588331D01*
Y00586665D01*
X00846660Y00584998D01*
X00851658D01*
X00765000Y00605000D02*
Y00614997D01*
X00769998D01*
X00771665Y00613331D01*
Y00609998D01*
X00769998Y00608332D01*
X00765000D01*
X00768332D02*
X00771665Y00605000D01*
X00781661Y00614997D02*
X00774997D01*
Y00609998D01*
X00778329Y00611665D01*
X00779995D01*
X00781661Y00609998D01*
Y00606666D01*
X00779995Y00605000D01*
X00776663D01*
X00774997Y00606666D01*
X00784994Y00613331D02*
X00786660Y00614997D01*
X00789992D01*
X00791658Y00613331D01*
Y00611665D01*
X00789992Y00609998D01*
X00791658Y00608332D01*
Y00606666D01*
X00789992Y00605000D01*
X00786660D01*
X00784994Y00606666D01*
Y00608332D01*
X00786660Y00609998D01*
X00784994Y00611665D01*
Y00613331D01*
X00786660Y00609998D02*
X00789992D01*
X00970000Y00595000D02*
Y00604997D01*
X00974998D01*
X00976665Y00603331D01*
Y00599998D01*
X00974998Y00598332D01*
X00970000D01*
X00973332D02*
X00976665Y00595000D01*
X00986661Y00604997D02*
X00979997D01*
Y00599998D01*
X00983329Y00601665D01*
X00984995D01*
X00986661Y00599998D01*
Y00596666D01*
X00984995Y00595000D01*
X00981663D01*
X00979997Y00596666D01*
X00996658Y00595000D02*
X00989994D01*
X00996658Y00601665D01*
Y00603331D01*
X00994992Y00604997D01*
X00991660D01*
X00989994Y00603331D01*
X00520000Y00570000D02*
Y00579997D01*
X00524998D01*
X00526665Y00578331D01*
Y00574998D01*
X00524998Y00573332D01*
X00520000D01*
X00523332D02*
X00526665Y00570000D01*
X00529997Y00578331D02*
X00531663Y00579997D01*
X00534995D01*
X00536661Y00578331D01*
Y00576665D01*
X00534995Y00574998D01*
X00533329D01*
X00534995D01*
X00536661Y00573332D01*
Y00571666D01*
X00534995Y00570000D01*
X00531663D01*
X00529997Y00571666D01*
X00546658Y00579997D02*
X00539994D01*
Y00574998D01*
X00543326Y00576665D01*
X00544992D01*
X00546658Y00574998D01*
Y00571666D01*
X00544992Y00570000D01*
X00541660D01*
X00539994Y00571666D01*
X00390000Y00585000D02*
Y00594997D01*
X00394998D01*
X00396665Y00593331D01*
Y00589998D01*
X00394998Y00588332D01*
X00390000D01*
X00393332D02*
X00396665Y00585000D01*
X00399997D02*
X00403329D01*
X00401663D01*
Y00594997D01*
X00399997Y00593331D01*
X00408327D02*
X00409994Y00594997D01*
X00413326D01*
X00414992Y00593331D01*
Y00591665D01*
X00413326Y00589998D01*
X00414992Y00588332D01*
Y00586666D01*
X00413326Y00585000D01*
X00409994D01*
X00408327Y00586666D01*
Y00588332D01*
X00409994Y00589998D01*
X00408327Y00591665D01*
Y00593331D01*
X00409994Y00589998D02*
X00413326D01*
X00932500Y00862500D02*
Y00872497D01*
X00937498D01*
X00939165Y00870831D01*
Y00867498D01*
X00937498Y00865832D01*
X00932500D01*
X00935832D02*
X00939165Y00862500D01*
X00949161Y00872497D02*
X00945829Y00870831D01*
X00942497Y00867498D01*
Y00864166D01*
X00944163Y00862500D01*
X00947495D01*
X00949161Y00864166D01*
Y00865832D01*
X00947495Y00867498D01*
X00942497D01*
X00861822Y00865378D02*
Y00875375D01*
X00866820D01*
X00868486Y00873709D01*
Y00870376D01*
X00866820Y00868710D01*
X00861822D01*
X00865154D02*
X00868486Y00865378D01*
X00876817D02*
Y00875375D01*
X00871819Y00870376D01*
X00878483D01*
X00907500Y00772497D02*
Y00762500D01*
Y00767498D01*
X00914165D01*
Y00772497D01*
Y00762500D01*
X00917497Y00772497D02*
Y00762500D01*
X00924161D01*
X00934158D02*
X00927494D01*
X00934158Y00769165D01*
Y00770831D01*
X00932492Y00772497D01*
X00929160D01*
X00927494Y00770831D01*
X00857500Y00772497D02*
Y00762500D01*
Y00767498D01*
X00864165D01*
Y00772497D01*
Y00762500D01*
X00867497Y00772497D02*
Y00762500D01*
X00874161D01*
X00877494D02*
X00880826D01*
X00879160D01*
Y00772497D01*
X00877494Y00770831D01*
X00925000Y00579997D02*
Y00570000D01*
X00929998D01*
X00931665Y00571666D01*
Y00578331D01*
X00929998Y00579997D01*
X00925000D01*
X00934997Y00570000D02*
Y00576665D01*
X00938329Y00579997D01*
X00941661Y00576665D01*
Y00570000D01*
Y00574998D01*
X00934997D01*
X00944994Y00570000D02*
X00948326D01*
X00946660D01*
Y00579997D01*
X00944994Y00578331D01*
X00953324Y00579997D02*
X00959989D01*
Y00578331D01*
X00953324Y00571666D01*
Y00570000D01*
X00886669Y00561665D02*
X00885003Y00559998D01*
Y00556666D01*
X00886669Y00555000D01*
X00893334D01*
X00895000Y00556666D01*
Y00559998D01*
X00893334Y00561665D01*
X00885003Y00571661D02*
Y00564997D01*
X00890002D01*
X00888335Y00568329D01*
Y00569995D01*
X00890002Y00571661D01*
X00893334D01*
X00895000Y00569995D01*
Y00566663D01*
X00893334Y00564997D01*
X00886669Y00574994D02*
X00885003Y00576660D01*
Y00579992D01*
X00886669Y00581658D01*
X00888335D01*
X00890002Y00579992D01*
Y00578326D01*
Y00579992D01*
X00891668Y00581658D01*
X00893334D01*
X00895000Y00579992D01*
Y00576660D01*
X00893334Y00574994D01*
X00801669Y00656665D02*
X00800003Y00654998D01*
Y00651666D01*
X00801669Y00650000D01*
X00808334D01*
X00810000Y00651666D01*
Y00654998D01*
X00808334Y00656665D01*
X00800003Y00666661D02*
Y00659997D01*
X00805002D01*
X00803335Y00663329D01*
Y00664995D01*
X00805002Y00666661D01*
X00808334D01*
X00810000Y00664995D01*
Y00661663D01*
X00808334Y00659997D01*
X00810000Y00676658D02*
Y00669994D01*
X00803335Y00676658D01*
X00801669D01*
X00800003Y00674992D01*
Y00671660D01*
X00801669Y00669994D01*
X00851665Y00683331D02*
X00849998Y00684997D01*
X00846666D01*
X00845000Y00683331D01*
Y00676666D01*
X00846666Y00675000D01*
X00849998D01*
X00851665Y00676666D01*
X00859995Y00675000D02*
Y00684997D01*
X00854997Y00679998D01*
X00861661D01*
X00864994Y00676666D02*
X00866660Y00675000D01*
X00869992D01*
X00871658Y00676666D01*
Y00683331D01*
X00869992Y00684997D01*
X00866660D01*
X00864994Y00683331D01*
Y00681665D01*
X00866660Y00679998D01*
X00871658D01*
X00911665Y00683331D02*
X00909998Y00684997D01*
X00906666D01*
X00905000Y00683331D01*
Y00676666D01*
X00906666Y00675000D01*
X00909998D01*
X00911665Y00676666D01*
X00919995Y00675000D02*
Y00684997D01*
X00914997Y00679998D01*
X00921661D01*
X00931658Y00684997D02*
X00928326Y00683331D01*
X00924994Y00679998D01*
Y00676666D01*
X00926660Y00675000D01*
X00929992D01*
X00931658Y00676666D01*
Y00678332D01*
X00929992Y00679998D01*
X00924994D01*
X00981665Y00673331D02*
X00979998Y00674997D01*
X00976666D01*
X00975000Y00673331D01*
Y00666666D01*
X00976666Y00665000D01*
X00979998D01*
X00981665Y00666666D01*
X00989995Y00665000D02*
Y00674997D01*
X00984997Y00669998D01*
X00991661D01*
X00994994Y00665000D02*
X00998326D01*
X00996660D01*
Y00674997D01*
X00994994Y00673331D01*
X00541665Y00648331D02*
X00539998Y00649997D01*
X00536666D01*
X00535000Y00648331D01*
Y00641666D01*
X00536666Y00640000D01*
X00539998D01*
X00541665Y00641666D01*
X00544997Y00648331D02*
X00546663Y00649997D01*
X00549995D01*
X00551661Y00648331D01*
Y00646665D01*
X00549995Y00644998D01*
X00548329D01*
X00549995D01*
X00551661Y00643332D01*
Y00641666D01*
X00549995Y00640000D01*
X00546663D01*
X00544997Y00641666D01*
X00554994Y00640000D02*
X00558326D01*
X00556660D01*
Y00649997D01*
X00554994Y00648331D01*
X00486665Y00668331D02*
X00484998Y00669997D01*
X00481666D01*
X00480000Y00668331D01*
Y00661666D01*
X00481666Y00660000D01*
X00484998D01*
X00486665Y00661666D01*
X00496661Y00660000D02*
X00489997D01*
X00496661Y00666665D01*
Y00668331D01*
X00494995Y00669997D01*
X00491663D01*
X00489997Y00668331D01*
X00499994Y00660000D02*
X00503326D01*
X00501660D01*
Y00669997D01*
X00499994Y00668331D01*
X00351665Y00593331D02*
X00349998Y00594997D01*
X00346666D01*
X00345000Y00593331D01*
Y00586666D01*
X00346666Y00585000D01*
X00349998D01*
X00351665Y00586666D01*
X00354997Y00585000D02*
X00358329D01*
X00356663D01*
Y00594997D01*
X00354997Y00593331D01*
X00363327D02*
X00364994Y00594997D01*
X00368326D01*
X00369992Y00593331D01*
Y00591665D01*
X00368326Y00589998D01*
X00369992Y00588332D01*
Y00586666D01*
X00368326Y00585000D01*
X00364994D01*
X00363327Y00586666D01*
Y00588332D01*
X00364994Y00589998D01*
X00363327Y00591665D01*
Y00593331D01*
X00364994Y00589998D02*
X00368326D01*
X00249165Y00589997D02*
X00245832D01*
X00247498D01*
Y00581666D01*
X00245832Y00580000D01*
X00244166D01*
X00242500Y00581666D01*
X00252497Y00580000D02*
X00255829D01*
X00254163D01*
Y00589997D01*
X00252497Y00588331D01*
X00599165Y00587497D02*
X00595832D01*
X00597498D01*
Y00579166D01*
X00595832Y00577500D01*
X00594166D01*
X00592500Y00579166D01*
X00609161Y00577500D02*
X00602497D01*
X00609161Y00584165D01*
Y00585831D01*
X00607495Y00587497D01*
X00604163D01*
X00602497Y00585831D01*
X00826665Y00569997D02*
X00823332D01*
X00824998D01*
Y00561666D01*
X00823332Y00560000D01*
X00821666D01*
X00820000Y00561666D01*
X00829997Y00568331D02*
X00831663Y00569997D01*
X00834995D01*
X00836661Y00568331D01*
Y00566665D01*
X00834995Y00564998D01*
X00833329D01*
X00834995D01*
X00836661Y00563332D01*
Y00561666D01*
X00834995Y00560000D01*
X00831663D01*
X00829997Y00561666D01*
X00871665Y00164997D02*
X00868332D01*
X00869998D01*
Y00156666D01*
X00868332Y00155000D01*
X00866666D01*
X00865000Y00156666D01*
X00879995Y00155000D02*
Y00164997D01*
X00874997Y00159998D01*
X00881661D01*
X00511665Y00169997D02*
X00508332D01*
X00509998D01*
Y00161666D01*
X00508332Y00160000D01*
X00506666D01*
X00505000Y00161666D01*
X00521661Y00169997D02*
X00514997D01*
Y00164998D01*
X00518329Y00166665D01*
X00519995D01*
X00521661Y00164998D01*
Y00161666D01*
X00519995Y00160000D01*
X00516663D01*
X00514997Y00161666D01*
X00201737Y00218023D02*
X00198404D01*
X00200070D01*
Y00209692D01*
X00198404Y00208026D01*
X00196738D01*
X00195072Y00209692D01*
X00211733Y00218023D02*
X00208401Y00216357D01*
X00205069Y00213024D01*
Y00209692D01*
X00206735Y00208026D01*
X00210067D01*
X00211733Y00209692D01*
Y00211358D01*
X00210067Y00213024D01*
X00205069D01*
X00316665Y00624997D02*
X00313332D01*
X00314998D01*
Y00616666D01*
X00313332Y00615000D01*
X00311666D01*
X00310000Y00616666D01*
X00319997Y00624997D02*
X00326661D01*
Y00623331D01*
X00319997Y00616666D01*
Y00615000D01*
X00821665Y00714997D02*
X00818332D01*
X00819998D01*
Y00706666D01*
X00818332Y00705000D01*
X00816666D01*
X00815000Y00706666D01*
X00824997Y00713331D02*
X00826663Y00714997D01*
X00829995D01*
X00831661Y00713331D01*
Y00711665D01*
X00829995Y00709998D01*
X00831661Y00708332D01*
Y00706666D01*
X00829995Y00705000D01*
X00826663D01*
X00824997Y00706666D01*
Y00708332D01*
X00826663Y00709998D01*
X00824997Y00711665D01*
Y00713331D01*
X00826663Y00709998D02*
X00829995D01*
X00999165Y00737497D02*
X00995832D01*
X00997498D01*
Y00729166D01*
X00995832Y00727500D01*
X00994166D01*
X00992500Y00729166D01*
X01002497D02*
X01004163Y00727500D01*
X01007495D01*
X01009161Y00729166D01*
Y00735831D01*
X01007495Y00737497D01*
X01004163D01*
X01002497Y00735831D01*
Y00734165D01*
X01004163Y00732498D01*
X01009161D01*
X00821665Y00784997D02*
X00818332D01*
X00819998D01*
Y00776666D01*
X00818332Y00775000D01*
X00816666D01*
X00815000Y00776666D01*
X00824997Y00775000D02*
X00828329D01*
X00826663D01*
Y00784997D01*
X00824997Y00783331D01*
X00833327D02*
X00834994Y00784997D01*
X00838326D01*
X00839992Y00783331D01*
Y00776666D01*
X00838326Y00775000D01*
X00834994D01*
X00833327Y00776666D01*
Y00783331D01*
X00246665Y00664997D02*
X00243332D01*
X00244998D01*
Y00656666D01*
X00243332Y00655000D01*
X00241666D01*
X00240000Y00656666D01*
X00249997Y00655000D02*
X00253329D01*
X00251663D01*
Y00664997D01*
X00249997Y00663331D01*
X00258327Y00655000D02*
X00261660D01*
X00259994D01*
Y00664997D01*
X00258327Y00663331D01*
X00699165Y00629997D02*
X00695832D01*
X00697498D01*
Y00621666D01*
X00695832Y00620000D01*
X00694166D01*
X00692500Y00621666D01*
X00702497Y00620000D02*
X00705829D01*
X00704163D01*
Y00629997D01*
X00702497Y00628331D01*
X00717492Y00620000D02*
X00710827D01*
X00717492Y00626665D01*
Y00628331D01*
X00715826Y00629997D01*
X00712494D01*
X00710827Y00628331D01*
X01133856Y00779109D02*
X01140520Y00769112D01*
Y00779109D02*
X01133856Y00769112D01*
X01143853D02*
Y00779109D01*
X01148851D01*
X01150517Y00777443D01*
Y00774110D01*
X01148851Y00772444D01*
X01143853D01*
X01153850Y00777443D02*
X01155516Y00779109D01*
X01158848D01*
X01160514Y00777443D01*
Y00775777D01*
X01158848Y00774110D01*
X01157182D01*
X01158848D01*
X01160514Y00772444D01*
Y00770778D01*
X01158848Y00769112D01*
X01155516D01*
X01153850Y00770778D01*
D25*
X00917740Y00641520D02*
G03*
X00932980Y00641520I00007620J00000000D01*
G01*
X00455240Y00620220D02*
G03*
X00470480Y00620220I00007620J00000000D01*
G01*
X00860000Y00794500D02*
X00880000D01*
Y00780000D02*
Y00815000D01*
X00860000D02*
X00880000D01*
X00860000Y00780000D02*
Y00815000D01*
Y00780000D02*
X00880000D01*
X00902500D02*
X00922500D01*
X00902500D02*
Y00815000D01*
X00922500D01*
Y00780000D02*
Y00815000D01*
X00902500Y00794500D02*
X00922500D01*
X00193500Y00191500D02*
X00221500D01*
X00221500Y00163500D02*
Y00191500D01*
X00193500Y00163500D02*
X00221500D01*
X00193500Y00163500D02*
Y00191500D01*
X01132300Y00709800D02*
Y00760600D01*
Y00709800D02*
X01157700D01*
Y00760600D01*
X01132300D02*
X01157700D01*
X00208500Y00599000D02*
X00236500D01*
X00236500Y00571000D02*
Y00599000D01*
X00208500Y00571000D02*
X00236500D01*
X00208500Y00571000D02*
Y00599000D01*
X00656000Y00649000D02*
X00684000D01*
X00684000Y00621000D02*
Y00649000D01*
X00656000Y00621000D02*
X00684000D01*
X00656000Y00621000D02*
Y00649000D01*
X00778500Y00716500D02*
X00806500D01*
X00806500Y00688500D02*
Y00716500D01*
X00778500Y00688500D02*
X00806500D01*
X00778500Y00688500D02*
Y00716500D01*
X00273500Y00629000D02*
X00301500D01*
X00301500Y00601000D02*
Y00629000D01*
X00273500Y00601000D02*
X00301500D01*
X00273500Y00601000D02*
Y00629000D01*
X00953500Y00739000D02*
X00981500D01*
X00981500Y00711000D02*
Y00739000D01*
X00953500Y00711000D02*
X00981500D01*
X00953500Y00711000D02*
Y00739000D01*
X00781000Y00589000D02*
X00809000D01*
X00809000Y00561000D02*
Y00589000D01*
X00781000Y00561000D02*
X00809000D01*
X00781000Y00561000D02*
Y00589000D01*
X00816000Y00824000D02*
X00844000D01*
X00844000Y00796000D02*
Y00824000D01*
X00816000Y00796000D02*
X00844000D01*
X00816000Y00796000D02*
Y00824000D01*
X00556000Y00599000D02*
X00584000D01*
X00584000Y00571000D02*
Y00599000D01*
X00556000Y00571000D02*
X00584000D01*
X00556000Y00571000D02*
Y00599000D01*
X00299000Y00648500D02*
Y00676500D01*
X00271000Y00648500D02*
X00299000D01*
X00271000D02*
Y00676500D01*
X00271000Y00676500D02*
X00299000D01*
X00531000Y00184000D02*
X00559000D01*
X00559000Y00156000D02*
Y00184000D01*
X00531000Y00156000D02*
X00559000D01*
X00531000Y00156000D02*
Y00184000D01*
X00893500Y00181500D02*
X00921500D01*
X00921500Y00153500D02*
Y00181500D01*
X00893500Y00153500D02*
X00921500D01*
X00893500Y00153500D02*
Y00181500D01*
X00887260Y00589850D02*
X00962190D01*
X00887260D02*
Y00641520D01*
X00915200D01*
X00962190Y00589850D02*
Y00641520D01*
X00935520D02*
X00962190D01*
X00915200D02*
X00917740D01*
X00932980D02*
X00935520D01*
X00424760Y00568550D02*
X00499690D01*
X00424760D02*
Y00620220D01*
X00452700D01*
X00499690Y00568550D02*
Y00620220D01*
X00473020D02*
X00499690D01*
X00452700D02*
X00455240D01*
X00470480D02*
X00473020D01*
X00341238Y00602440D02*
X00374766D01*
Y00622760D01*
X00341238D02*
X00374766D01*
X00341238Y00602440D02*
Y00622760D01*
X00511162Y00631840D02*
Y00652160D01*
X00477634Y00631840D02*
X00511162D01*
X00477634D02*
Y00652160D01*
X00511162D01*
X00515236Y00614840D02*
Y00635160D01*
X00548764D01*
Y00614840D02*
Y00635160D01*
X00515236Y00614840D02*
X00548764D01*
X00972434Y00638540D02*
Y00658860D01*
X01005962D01*
Y00638540D02*
Y00658860D01*
X00972434Y00638540D02*
X01005962D01*
X00937340Y00651534D02*
Y00685062D01*
Y00651534D02*
X00957660D01*
Y00685062D01*
X00937340D02*
X00957660D01*
X00841338Y00623740D02*
Y00644060D01*
X00874866D01*
Y00623740D02*
Y00644060D01*
X00841338Y00623740D02*
X00874866D01*
X00814840Y00651134D02*
Y00684662D01*
Y00651134D02*
X00835160D01*
Y00684662D01*
X00814840D02*
X00835160D01*
X00859840Y00592764D02*
X00880160D01*
Y00559236D02*
Y00592764D01*
X00859840Y00559236D02*
X00880160D01*
X00859840D02*
Y00592764D01*
X00859840Y00823838D02*
Y00857366D01*
Y00823838D02*
X00880160D01*
Y00857366D01*
X00859840D02*
X00880160D01*
X00902340Y00874866D02*
X00922660D01*
Y00841338D02*
Y00874866D01*
X00902340Y00841338D02*
X00922660D01*
X00902340D02*
Y00874866D01*
X00382238Y00602440D02*
Y00622760D01*
X00415766D01*
Y00602440D02*
Y00622760D01*
X00382238Y00602440D02*
X00415766D01*
X00515236Y00610160D02*
X00548764D01*
X00515236Y00589840D02*
Y00610160D01*
Y00589840D02*
X00548764D01*
Y00610160D01*
X01005962Y00611040D02*
Y00631360D01*
X00972434Y00611040D02*
X01005962D01*
X00972434D02*
Y00631360D01*
X01005962D01*
X00800736Y00598942D02*
Y00619262D01*
X00834264D01*
Y00598942D02*
Y00619262D01*
X00800736Y00598942D02*
X00834264D01*
X00841338D02*
X00874866D01*
Y00619262D01*
X00841338D02*
X00874866D01*
X00841338Y00598942D02*
Y00619262D01*
Y00648538D02*
Y00668858D01*
X00874866D01*
Y00648538D02*
Y00668858D01*
X00841338Y00648538D02*
X00874866D01*
D26*
X00186800Y00910500D02*
X00720200D01*
Y00681900D02*
Y00910500D01*
X00186800Y00681900D02*
X00720200D01*
X00186800D02*
Y00910500D01*
X00224900Y00859700D02*
Y00885100D01*
X00250300Y00859700D02*
Y00885100D01*
X00275700Y00859700D02*
Y00885100D01*
X00326500Y00859700D02*
Y00885100D01*
X00351900Y00859700D02*
Y00885100D01*
X00377300Y00859700D02*
Y00885100D01*
X00428100Y00859700D02*
Y00885100D01*
X00453500Y00859700D02*
Y00885100D01*
X00478900Y00859700D02*
Y00885100D01*
X00529700Y00859700D02*
Y00885100D01*
X00555100Y00859700D02*
Y00885100D01*
X00580500Y00859700D02*
Y00885100D01*
X00631300Y00859700D02*
Y00885100D01*
X00656700Y00859700D02*
Y00885100D01*
X00682100Y00859700D02*
Y00885100D01*
X00656700D02*
X00707500D01*
Y00859700D02*
Y00885100D01*
X00656700Y00859700D02*
X00707500D01*
X00605900Y00885100D02*
X00656700D01*
X00605900Y00859700D02*
X00656700D01*
X00555100Y00885100D02*
X00605900D01*
Y00859700D02*
Y00885100D01*
X00555100Y00859700D02*
X00605900D01*
X00504300Y00885100D02*
X00555100D01*
X00504300Y00859700D02*
X00555100D01*
X00453500Y00885100D02*
X00504300D01*
Y00859700D02*
Y00885100D01*
X00453500Y00859700D02*
X00504300D01*
X00402700Y00885100D02*
X00453500D01*
X00402700Y00859700D02*
X00453500D01*
X00351900Y00885100D02*
X00402700D01*
Y00859700D02*
Y00885100D01*
X00351900Y00859700D02*
X00402700D01*
X00301100Y00885100D02*
X00351900D01*
X00301100Y00859700D02*
X00351900D01*
X00199500D02*
Y00885100D01*
Y00859700D02*
X00250300D01*
X00199500Y00885100D02*
X00250300D01*
Y00859700D02*
X00301100D01*
Y00885100D01*
X00250300D02*
X00301100D01*
X00250300Y00732700D02*
X00301100D01*
Y00707300D02*
Y00732700D01*
X00250300Y00707300D02*
X00301100D01*
X00199500Y00732700D02*
X00250300D01*
X00199500Y00707300D02*
X00250300D01*
X00199500D02*
Y00732700D01*
X00301100Y00707300D02*
X00351900D01*
X00301100Y00732700D02*
X00351900D01*
Y00707300D02*
X00402700D01*
Y00732700D01*
X00351900D02*
X00402700D01*
Y00707300D02*
X00453500D01*
X00402700Y00732700D02*
X00453500D01*
Y00707300D02*
X00504300D01*
Y00732700D01*
X00453500D02*
X00504300D01*
Y00707300D02*
X00555100D01*
X00504300Y00732700D02*
X00555100D01*
Y00707300D02*
X00605900D01*
Y00732700D01*
X00555100D02*
X00605900D01*
Y00707300D02*
X00656700D01*
X00605900Y00732700D02*
X00656700D01*
Y00707300D02*
X00707500D01*
Y00732700D01*
X00656700D02*
X00707500D01*
X00682100Y00707300D02*
Y00732700D01*
X00656700Y00707300D02*
Y00732700D01*
X00631300Y00707300D02*
Y00732700D01*
X00580500Y00707300D02*
Y00732700D01*
X00555100Y00707300D02*
Y00732700D01*
X00529700Y00707300D02*
Y00732700D01*
X00478900Y00707300D02*
Y00732700D01*
X00453500Y00707300D02*
Y00732700D01*
X00428100Y00707300D02*
Y00732700D01*
X00377300Y00707300D02*
Y00732700D01*
X00351900Y00707300D02*
Y00732700D01*
X00326500Y00707300D02*
Y00732700D01*
X00275700Y00707300D02*
Y00732700D01*
X00250300Y00707300D02*
Y00732700D01*
X00224900Y00707300D02*
Y00732700D01*
X00644000Y00847000D02*
X00669400D01*
X00644000Y00821600D02*
Y00847000D01*
Y00821600D02*
X00669400D01*
Y00847000D01*
Y00796200D02*
Y00821600D01*
X00644000Y00796200D02*
X00669400D01*
X00644000D02*
Y00821600D01*
X00669400D01*
Y00770800D02*
Y00796200D01*
X00644000Y00770800D02*
X00669400D01*
X00644000D02*
Y00796200D01*
X00669400D01*
Y00745400D02*
Y00770800D01*
X00644000Y00745400D02*
X00669400D01*
X00644000D02*
Y00770800D01*
X00669400D01*
X00186800Y00834300D02*
X00224900D01*
Y00758100D02*
Y00834300D01*
X00186800Y00758100D02*
X00224900D01*
X00125000Y00700600D02*
X00137700D01*
X00112300D02*
X00125000D01*
X00112300Y00599000D02*
X00125000D01*
X00137700D01*
X00112300D02*
Y00700600D01*
X00137700Y00599000D02*
Y00700600D01*
X00112300Y00675200D02*
X00125000D01*
X00137700D01*
X00125000Y00649800D02*
X00137700D01*
X00112300D02*
X00125000D01*
Y00624400D02*
X00137700D01*
X00112300D02*
X00125000D01*
M02*
